<svg width="3267" height="2663" xmlns="http://www.w3.org/2000/svg" xmlns:xlink="http://www.w3.org/1999/xlink" xml:space="preserve" overflow="hidden"><g transform="translate(-2800 -3338)"><path d="M2832.5 4277.5C3175.86 4219.62 3659.37 4300.92 4082.5 4277.5 4069.1 4519.95 4082.53 4693.98 4082.5 4955.5 3864.31 4953.29 3178.44 4967.58 2832.5 4955.5 2829.58 4636.77 2840.45 4437.44 2832.5 4277.5Z" fill="#FFFFFF" fill-rule="evenodd"/><path d="M2832.5 4277.5C3011.99 4241.93 3637.63 4270.4 4082.5 4277.5 4054.73 4541.11 4068.12 4876.34 4082.5 4955.5 3733.19 4919.93 3088.41 5009.89 2832.5 4955.5 2786.27 4741.67 2801.2 4409.49 2832.5 4277.5Z" stroke="#4C4D4D" stroke-width="4.58333" stroke-miterlimit="8" fill="none" fill-rule="evenodd"/><text fill="#008000" font-family="Consolas,Consolas_MSFontService,sans-serif" font-weight="400" font-size="48" transform="matrix(1 0 0 1 2864.75 4341)">/*+</text><text fill="#008000" font-family="Consolas,Consolas_MSFontService,sans-serif" font-weight="400" font-size="48" transform="matrix(1 0 0 1 2970.17 4405)">Leading(((t ci) mi))</text><text fill="#008000" font-family="Consolas,Consolas_MSFontService,sans-serif" font-weight="400" font-size="48" transform="matrix(1 0 0 1 2970.17 4469)">MergeJoin</text><text fill="#008000" font-family="Consolas,Consolas_MSFontService,sans-serif" font-weight="400" font-size="48" transform="matrix(1 0 0 1 3207.36 4469)">(t ci mi) </text><text fill="#008000" font-family="Consolas,Consolas_MSFontService,sans-serif" font-weight="400" font-size="48" transform="matrix(1 0 0 1 3470.9 4469)">NestLoop</text><text fill="#008000" font-family="Consolas,Consolas_MSFontService,sans-serif" font-weight="400" font-size="48" transform="matrix(1 0 0 1 3681.73 4469)">(t ci)</text><text fill="#008000" font-family="Consolas,Consolas_MSFontService,sans-serif" font-weight="400" font-size="48" transform="matrix(1 0 0 1 2970.17 4534)">SeqScan</text><text fill="#008000" font-family="Consolas,Consolas_MSFontService,sans-serif" font-weight="400" font-size="48" transform="matrix(1 0 0 1 3154.65 4534)">(t) </text><text fill="#008000" font-family="Consolas,Consolas_MSFontService,sans-serif" font-weight="400" font-size="48" transform="matrix(1 0 0 1 3260.06 4534)">IndexScan</text><text fill="#008000" font-family="Consolas,Consolas_MSFontService,sans-serif" font-weight="400" font-size="48" transform="matrix(1 0 0 1 3497.25 4534)">(mi) </text><text fill="#008000" font-family="Consolas,Consolas_MSFontService,sans-serif" font-weight="400" font-size="48" transform="matrix(1 0 0 1 3629.02 4534)">IndexScan</text><text fill="#008000" font-family="Consolas,Consolas_MSFontService,sans-serif" font-weight="400" font-size="48" transform="matrix(1 0 0 1 3866.21 4534)">(ci)</text><text fill="#008000" font-family="Consolas,Consolas_MSFontService,sans-serif" font-weight="400" font-size="48" transform="matrix(1 0 0 1 2891.11 4598)">*/</text><text fill="#0000FF" font-family="Consolas,Consolas_MSFontService,sans-serif" font-weight="400" font-size="48" transform="matrix(1 0 0 1 2864.75 4662)">SELECT</text><text font-family="Consolas,Consolas_MSFontService,sans-serif" font-weight="400" font-size="48" transform="matrix(1 0 0 1 3049.23 4662)">*</text><text fill="#0000FF" font-family="Consolas,Consolas_MSFontService,sans-serif" font-weight="400" font-size="48" transform="matrix(1 0 0 1 2864.75 4726)">FROM</text><text fill="#3B3B3B" font-family="Consolas,Consolas_MSFontService,sans-serif" font-weight="400" font-size="48" transform="matrix(1 0 0 1 2996.52 4726)">title </text><text fill="#0000FF" font-family="Consolas,Consolas_MSFontService,sans-serif" font-weight="400" font-size="48" transform="matrix(1 0 0 1 3154.65 4726)">t</text><text fill="#0000FF" font-family="Consolas,Consolas_MSFontService,sans-serif" font-weight="400" font-size="48" transform="matrix(1 0 0 1 2864.75 4790)">JOIN</text><text fill="#3B3B3B" font-family="Consolas,Consolas_MSFontService,sans-serif" font-weight="400" font-size="48" transform="matrix(1 0 0 1 2996.52 4790)">movie_info</text><text fill="#3B3B3B" font-family="Consolas,Consolas_MSFontService,sans-serif" font-weight="400" font-size="48" transform="matrix(1 0 0 1 3286.42 4790)">mi </text><text fill="#0000FF" font-family="Consolas,Consolas_MSFontService,sans-serif" font-weight="400" font-size="48" transform="matrix(1 0 0 1 3365.48 4790)">ON</text><text fill="#3B3B3B" font-family="Consolas,Consolas_MSFontService,sans-serif" font-weight="400" font-size="48" transform="matrix(1 0 0 1 3444.54 4790)">t.id </text><text font-family="Consolas,Consolas_MSFontService,sans-serif" font-weight="400" font-size="48" transform="matrix(1 0 0 1 3576.31 4790)">=</text><text fill="#3B3B3B" font-family="Consolas,Consolas_MSFontService,sans-serif" font-weight="400" font-size="48" transform="matrix(1 0 0 1 3629.02 4790)">mi.movie_id</text><text fill="#0000FF" font-family="Consolas,Consolas_MSFontService,sans-serif" font-weight="400" font-size="48" transform="matrix(1 0 0 1 2864.75 4854)">JOIN</text><text fill="#3B3B3B" font-family="Consolas,Consolas_MSFontService,sans-serif" font-weight="400" font-size="48" transform="matrix(1 0 0 1 2996.52 4854)">cast_info</text><text fill="#3B3B3B" font-family="Consolas,Consolas_MSFontService,sans-serif" font-weight="400" font-size="48" transform="matrix(1 0 0 1 3260.06 4854)">ci </text><text fill="#0000FF" font-family="Consolas,Consolas_MSFontService,sans-serif" font-weight="400" font-size="48" transform="matrix(1 0 0 1 3339.13 4854)">ON</text><text fill="#3B3B3B" font-family="Consolas,Consolas_MSFontService,sans-serif" font-weight="400" font-size="48" transform="matrix(1 0 0 1 3418.19 4854)">t.id </text><text font-family="Consolas,Consolas_MSFontService,sans-serif" font-weight="400" font-size="48" transform="matrix(1 0 0 1 3549.96 4854)">=</text><text fill="#3B3B3B" font-family="Consolas,Consolas_MSFontService,sans-serif" font-weight="400" font-size="48" transform="matrix(1 0 0 1 3602.67 4854)">ci.movie_id</text><text fill="#0000FF" font-family="Consolas,Consolas_MSFontService,sans-serif" font-weight="400" font-size="48" transform="matrix(1 0 0 1 2864.75 4919)">WHERE</text><text fill="#3B3B3B" font-family="Consolas,Consolas_MSFontService,sans-serif" font-weight="400" font-size="48" transform="matrix(1 0 0 1 3022.88 4919)">t.production_year</text><text font-family="Consolas,Consolas_MSFontService,sans-serif" font-weight="400" font-size="48" transform="matrix(1 0 0 1 3497.25 4919)">&gt;</text><text fill="#098658" font-family="Consolas,Consolas_MSFontService,sans-serif" font-weight="400" font-size="48" transform="matrix(1 0 0 1 3549.96 4919)">2010</text><g><g><g><path d="M4422.84 5759.22C4408.41 5759.22 4397.06 5747.53 4397.06 5733.44 4397.06 5719.34 4408.75 5707.66 4422.84 5707.66 4437.28 5707.66 4448.62 5719.34 4448.62 5733.44 4448.62 5747.53 4436.94 5759.22 4422.84 5759.22ZM4480.94 5717.28C4479.56 5712.47 4477.84 5708 4475.44 5703.88L4480.94 5687.72 4468.56 5675.34 4452.41 5680.84C4448.28 5678.44 4443.81 5676.72 4439 5675.34L4431.44 5660.22 4414.25 5660.22 4406.69 5675.34C4401.88 5676.72 4397.41 5678.44 4393.28 5680.84L4377.12 5675.34 4364.75 5687.72 4370.25 5703.88C4367.84 5708 4366.12 5712.47 4364.75 5717.28L4349.62 5724.84 4349.62 5742.03 4364.75 5749.59C4366.12 5754.41 4367.84 5758.88 4370.25 5763L4364.75 5779.16 4376.78 5791.19 4392.94 5785.69C4397.06 5788.09 4401.53 5789.81 4406.34 5791.19L4413.91 5806.31 4431.09 5806.31 4438.66 5791.19C4443.47 5789.81 4447.94 5788.09 4452.06 5785.69L4468.22 5791.19 4480.59 5779.16 4475.09 5763C4477.5 5758.88 4479.56 5754.06 4480.94 5749.59L4496.06 5742.03 4496.06 5724.84 4480.94 5717.28Z" fill="#1B6AA3"/><path d="M4345.16 5884.34C4330.72 5884.34 4319.38 5872.66 4319.38 5858.56 4319.38 5844.12 4331.06 5832.78 4345.16 5832.78 4359.59 5832.78 4370.94 5844.47 4370.94 5858.56 4370.94 5872.66 4359.59 5884.34 4345.16 5884.34L4345.16 5884.34ZM4397.75 5829 4403.25 5812.84 4390.88 5800.47 4374.72 5805.97C4370.59 5803.56 4365.78 5801.84 4361.31 5800.47L4353.75 5785.34 4336.56 5785.34 4329 5800.47C4324.19 5801.84 4319.72 5803.56 4315.59 5805.97L4299.44 5800.47 4287.41 5812.5 4292.56 5828.66C4290.16 5832.78 4288.44 5837.59 4287.06 5842.06L4271.94 5849.62 4271.94 5866.81 4287.06 5874.38C4288.44 5879.19 4290.16 5883.66 4292.56 5887.78L4287.41 5903.94 4299.44 5915.97 4315.59 5910.81C4319.72 5913.22 4324.19 5914.94 4329 5916.31L4336.56 5931.44 4353.75 5931.44 4361.31 5916.31C4366.12 5914.94 4370.59 5913.22 4374.72 5910.81L4390.88 5916.31 4402.91 5903.94 4397.75 5888.12C4400.16 5884 4401.88 5879.53 4403.25 5874.72L4418.38 5867.16 4418.38 5849.97 4403.25 5842.41C4401.88 5837.59 4400.16 5833.12 4397.75 5829Z" fill="#1B6AA3"/></g></g></g><text fill="#4C4D4D" font-family="Open Sans,Open Sans_MSFontService,sans-serif" font-weight="400" font-size="50" transform="matrix(1 0 0 1 4513.25 5785)">Native</text><text fill="#4C4D4D" font-family="Open Sans,Open Sans_MSFontService,sans-serif" font-weight="400" font-size="50" transform="matrix(1 0 0 1 4513.25 5846)">query</text><text fill="#4C4D4D" font-family="Open Sans,Open Sans_MSFontService,sans-serif" font-weight="400" font-size="50" transform="matrix(1 0 0 1 4513.25 5906)">optimizer</text><path d="M4802 5126.25C4802 5173.88 4647.54 5212.5 4457 5212.5 4266.46 5212.5 4112 5173.88 4112 5126.25 4112 5078.62 4266.46 5040 4457 5040 4647.54 5040 4802 5078.62 4802 5126.25L4802 5909.75C4802 5957.38 4647.54 5996 4457 5996 4266.46 5996 4112 5957.38 4112 5909.75L4112 5126.25" stroke="#1B6AA3" stroke-width="10.3125" stroke-linejoin="round" stroke-miterlimit="10" fill="none" fill-rule="evenodd"/><path d="M3974.96 5285.5 4304.5 5285.5 4304.5 5327.52 4303.7 5327.35C4273.07 5327.35 4248.24 5352.22 4248.24 5382.89 4248.24 5413.56 4273.07 5438.43 4303.7 5438.43L4304.5 5438.26 4304.5 5615.5 3974.96 5615.5 3974.96 5582.5C3944.33 5582.5 3919.5 5557.64 3919.5 5526.96 3919.5 5496.29 3944.33 5471.43 3974.96 5471.43L3974.96 5438.43C3944.33 5438.43 3919.5 5413.56 3919.5 5382.89 3919.5 5352.22 3944.33 5327.35 3974.96 5327.35Z" stroke="#052842" stroke-width="4.58333" stroke-miterlimit="8" fill="#1B6AA3" fill-rule="evenodd"/><text fill="#FFFFFF" font-family="Open Sans,Open Sans_MSFontService,sans-serif" font-weight="400" font-size="62" transform="matrix(1 0 0 1 4009.78 5434)">Hinting</text><text fill="#FFFFFF" font-family="Open Sans,Open Sans_MSFontService,sans-serif" font-weight="400" font-size="62" transform="matrix(1 0 0 1 4009.78 5509)">extension</text><path d="M4381.46 5363.06 4388.64 5362.84 4395.93 5363.13 4403.13 5363.93 4410.22 5365.22 4413.56 5366.07 4411.03 5376.06 4407.86 5375.26 4408.2 5375.34 4401.46 5374.11 4401.81 5374.16 4394.97 5373.4 4395.33 5373.43 4388.41 5373.15 4388.77 5373.15 4381.77 5373.36ZM4423.76 5369.13 4424.06 5369.22 4430.78 5371.91 4437.35 5375.03 4443.77 5378.58 4450.02 5382.54 4452.43 5384.26 4446.42 5392.64 4444.14 5391.01 4444.38 5391.17 4438.39 5387.38 4438.65 5387.53 4432.5 5384.14 4432.79 5384.28 4426.5 5381.29 4426.8 5381.43 4420.39 5378.86 4420.7 5378.98 4420.57 5378.93ZM4460.84 5390.7 4462.05 5391.67 4473.21 5402.2 4483.02 5413.5 4475.24 5420.26 4465.59 5409.16 4465.95 5409.53 4455.12 5399.31 4455.43 5399.58 4454.38 5398.74ZM4489.38 5422.22 4493.09 5427.41 4501.63 5441.85 4505.4 5449.65 4496.12 5454.14 4492.44 5446.54 4492.64 5446.91 4484.33 5432.85 4484.58 5433.23 4480.99 5428.23ZM4509.91 5459.38 4515.57 5473.94 4520.1 5488.98 4510.23 5491.96 4505.75 5477.11 4505.88 5477.49 4500.3 5463.11ZM4522.6 5499.39 4524.88 5509.71 4527.63 5528.75 4527.76 5530.63 4517.47 5531.35 4517.35 5529.66 4517.39 5530.03 4514.7 5511.37 4514.77 5511.75 4512.53 5501.61ZM4528.48 5540.92 4529 5548.4 4529.14 5560.95 4528.72 5572.38 4518.42 5572.01 4518.83 5560.7 4518.82 5560.94 4518.69 5548.66 4518.71 5548.97 4518.19 5541.64ZM4527.9 5582.9 4527.66 5585.8 4526.07 5598.05 4523.91 5610.14 4523 5614.16 4512.94 5611.86 4513.83 5607.96 4513.78 5608.2 4515.9 5596.36 4515.86 5596.6 4517.42 5584.59 4517.4 5584.83 4517.63 5582.05ZM4520.52 5624.43 4517.93 5633.67 4517.4 5635.24 4507.63 5631.96 4508.11 5630.52 4508.04 5630.76 4510.6 5621.64ZM4542.86 5613.89 4509.26 5643.3 4500.2 5599.58C4499.62 5596.79 4501.41 5594.06 4504.2 5593.48 4506.99 5592.9 4509.72 5594.7 4510.3 5597.48L4517.57 5632.56 4509.12 5629.72 4536.07 5606.13C4538.21 5604.26 4541.47 5604.47 4543.35 5606.62 4545.22 5608.76 4545.01 5612.02 4542.86 5613.89Z" fill="#7F7F7F"/><text fill="#4C4D4D" font-family="Open Sans,Open Sans_MSFontService,sans-serif" font-weight="400" font-size="55" transform="matrix(1 0 0 1 4790.95 5054)">Target database</text><text fill="#4C4D4D" font-family="Open Sans,Open Sans_MSFontService,sans-serif" font-weight="400" font-size="50" transform="matrix(1 0 0 1 4490.81 4203)">PostBOUND </text><text fill="#4C4D4D" font-family="Open Sans,Open Sans_MSFontService,sans-serif" font-weight="400" font-size="50" transform="matrix(1 0 0 1 4490.81 4264)">hinting module</text><path d="M4886.5 4679.67C4886.5 4672.4 4892.4 4666.5 4899.67 4666.5L5217.33 4666.5C5224.6 4666.5 5230.5 4672.4 5230.5 4679.67L5230.5 4732.33C5230.5 4739.6 5224.6 4745.5 5217.33 4745.5L4899.67 4745.5C4892.4 4745.5 4886.5 4739.6 4886.5 4732.33Z" stroke="#052842" stroke-width="4.58333" stroke-miterlimit="8" fill="#1B6AA3" fill-rule="evenodd"/><text fill="#FFFFFF" font-family="Open Sans,Open Sans_MSFontService,sans-serif" font-weight="400" font-size="48" transform="matrix(1 0 0 1 4940.9 4722)">SeqScan</text><text fill="#FFFFFF" font-family="Open Sans,Open Sans_MSFontService,sans-serif" font-weight="400" font-size="48" transform="matrix(1 0 0 1 5129.39 4722)">(t)</text><path d="M5354.5 4682.5C5354.5 4675.32 5360.32 4669.5 5367.5 4669.5L5685.5 4669.5C5692.68 4669.5 5698.5 4675.32 5698.5 4682.5L5698.5 4734.5C5698.5 4741.68 5692.68 4747.5 5685.5 4747.5L5367.5 4747.5C5360.32 4747.5 5354.5 4741.68 5354.5 4734.5Z" stroke="#345452" stroke-width="4.58333" stroke-miterlimit="8" fill="#84CBC5" fill-rule="evenodd"/><text fill="#FFFFFF" font-family="Open Sans,Open Sans_MSFontService,sans-serif" font-weight="400" font-size="48" transform="matrix(1 0 0 1 5407.31 4724)">IdxScan</text><text fill="#FFFFFF" font-family="Open Sans,Open Sans_MSFontService,sans-serif" font-weight="400" font-size="48" transform="matrix(1 0 0 1 5580.9 4724)">(ci)</text><path d="M5657.5 4367.5C5657.5 4360.32 5663.32 4354.5 5670.5 4354.5L5987.5 4354.5C5994.68 4354.5 6000.5 4360.32 6000.5 4367.5L6000.5 4419.5C6000.5 4426.68 5994.68 4432.5 5987.5 4432.5L5670.5 4432.5C5663.32 4432.5 5657.5 4426.68 5657.5 4419.5Z" stroke="#345452" stroke-width="4.58333" stroke-miterlimit="8" fill="#84CBC5" fill-rule="evenodd"/><text fill="#FFFFFF" font-family="Open Sans,Open Sans_MSFontService,sans-serif" font-weight="400" font-size="48" transform="matrix(1 0 0 1 5699.16 4409)">IdxScan</text><text fill="#FFFFFF" font-family="Open Sans,Open Sans_MSFontService,sans-serif" font-weight="400" font-size="48" transform="matrix(1 0 0 1 5872.75 4409)">(mi)</text><path d="M5126.5 4519.67C5126.5 4512.4 5132.4 4506.5 5139.67 4506.5L5456.33 4506.5C5463.6 4506.5 5469.5 4512.4 5469.5 4519.67L5469.5 4572.33C5469.5 4579.6 5463.6 4585.5 5456.33 4585.5L5139.67 4585.5C5132.4 4585.5 5126.5 4579.6 5126.5 4572.33Z" stroke="#1B1B1B" stroke-width="4.58333" stroke-miterlimit="8" fill="#4C4D4D" fill-rule="evenodd"/><text fill="#FFFFFF" font-family="Open Sans,Open Sans_MSFontService,sans-serif" font-weight="400" font-size="48" transform="matrix(1 0 0 1 5189.62 4562)">NestLoop</text><path d="M5363.5 4204.5C5363.5 4197.32 5369.32 4191.5 5376.5 4191.5L5693.5 4191.5C5700.68 4191.5 5706.5 4197.32 5706.5 4204.5L5706.5 4256.5C5706.5 4263.68 5700.68 4269.5 5693.5 4269.5L5376.5 4269.5C5369.32 4269.5 5363.5 4263.68 5363.5 4256.5Z" stroke="#672C26" stroke-width="4.58333" stroke-miterlimit="8" fill="#F47264" fill-rule="evenodd"/><text fill="#FFFFFF" font-family="Open Sans,Open Sans_MSFontService,sans-serif" font-weight="400" font-size="48" transform="matrix(1 0 0 1 5420.93 4246)">MergeJoin</text><path d="M5126.5 4367.5C5126.5 4360.32 5132.32 4354.5 5139.5 4354.5L5456.5 4354.5C5463.68 4354.5 5469.5 4360.32 5469.5 4367.5L5469.5 4419.5C5469.5 4426.68 5463.68 4432.5 5456.5 4432.5L5139.5 4432.5C5132.32 4432.5 5126.5 4426.68 5126.5 4419.5Z" stroke="#4C4D4D" stroke-width="4.58333" stroke-miterlimit="8" fill="#FFFFFF" fill-rule="evenodd"/><text fill="#4C4D4D" font-family="Open Sans,Open Sans_MSFontService,sans-serif" font-weight="400" font-size="48" transform="matrix(1 0 0 1 5251.5 4409)">Sort</text><path d="M0 0 22.1931 33.8048" stroke="#4C4D4D" stroke-width="6.875" stroke-miterlimit="8" fill="none" fill-rule="evenodd" transform="matrix(1 0 0 -1 5153.5 4650.3)"/><path d="M0 0 22.1931 33.8048" stroke="#4C4D4D" stroke-width="6.875" stroke-miterlimit="8" fill="none" fill-rule="evenodd" transform="matrix(1 0 0 -1 5384.5 4335.3)"/><path d="M5417.69 4650.3 5395.5 4616.5" stroke="#4C4D4D" stroke-width="6.875" stroke-miterlimit="8" fill="none" fill-rule="evenodd"/><path d="M5697.69 4333.3 5675.5 4299.5" stroke="#4C4D4D" stroke-width="6.875" stroke-miterlimit="8" fill="none" fill-rule="evenodd"/><path d="M0 0 0.000360892 45.0466" stroke="#4C4D4D" stroke-width="6.875" stroke-miterlimit="8" fill="none" fill-rule="evenodd" transform="matrix(1 0 0 -1 5292.5 4492.55)"/><path d="M0 50.25 50.5 50.25 50.5 0 101 100.5 50.5 201 50.5 150.75 0 150.75Z" stroke="#052842" stroke-width="4.58333" stroke-miterlimit="8" fill="#7F7F7F" fill-rule="evenodd" transform="matrix(-1 0 0 1 4830.5 4449.5)"/><path d="M4320.5 4391.33C4320.5 4359.39 4346.39 4333.5 4378.33 4333.5L4609.67 4333.5C4641.61 4333.5 4667.5 4359.39 4667.5 4391.33L4667.5 4747.67C4667.5 4779.61 4641.61 4805.5 4609.67 4805.5L4378.33 4805.5C4346.39 4805.5 4320.5 4779.61 4320.5 4747.67Z" stroke="#7CC8EC" stroke-width="6.875" stroke-linejoin="round" stroke-miterlimit="10" fill="none" fill-rule="evenodd"/><g><g><g><path d="M4629.19 4557.84 4649.81 4557.84 4649.81 4589.81 4629.19 4589.81Z" fill="#7CC8EC"/><path d="M4560.44 4557.84 4581.06 4557.84 4581.06 4589.81 4560.44 4589.81Z" fill="#7CC8EC"/><path d="M4354.19 4557.84 4374.81 4557.84 4374.81 4589.81 4354.19 4589.81Z" fill="#7CC8EC"/><path d="M4594.81 4542.03 4615.44 4542.03 4615.44 4606.31 4594.81 4606.31Z" fill="#7CC8EC"/><path d="M4526.06 4542.03 4546.69 4542.03 4546.69 4606.31 4526.06 4606.31Z" fill="#7CC8EC"/><path d="M4388.56 4542.03 4409.19 4542.03 4409.19 4606.31 4388.56 4606.31Z" fill="#7CC8EC"/><path d="M4491.69 4525.88 4512.31 4525.88 4512.31 4622.12 4491.69 4622.12Z" fill="#7CC8EC"/><path d="M4422.94 4509.72 4443.56 4509.72 4443.56 4637.94 4422.94 4637.94Z" fill="#7CC8EC"/><path d="M4457.31 4477.75 4477.94 4477.75 4477.94 4670.25 4457.31 4670.25Z" fill="#7CC8EC"/></g></g></g><g><g><g><path d="M4553.72 3546.18 4553.72 3546.18C4552.12 3562.49 4557.23 3578.8 4568.43 3590.63L4568.43 3590.63C4552.12 3591.59 4537.09 3599.58 4527.17 3612.69L4527.17 3612.69C4528.77 3596.38 4523.66 3580.07 4512.46 3568.24L4512.46 3568.24C4528.77 3566.96 4543.8 3558.97 4553.72 3546.18Z" fill="#7CC8EC"/><path d="M4454.9 3555.13C4453.3 3575.92 4459.7 3595.11 4472.49 3608.22L4472.49 3608.22C4454.26 3608.86 4436.03 3618.45 4422.92 3634.44L4422.92 3634.44C4424.52 3613.97 4418.12 3594.47 4405.33 3581.35L4405.33 3581.35C4423.56 3580.71 4441.79 3571.12 4454.9 3555.13L4454.9 3555.13Z" fill="#7CC8EC"/><path d="M4551.16 3636.36 4551.16 3636.36C4549.88 3647.87 4553.72 3659.06 4561.39 3667.7L4561.39 3667.7C4549.88 3668.34 4539.33 3674.09 4532.29 3683.05L4532.29 3683.05C4533.57 3671.54 4529.73 3660.34 4522.06 3651.71L4522.06 3651.71C4533.57 3651.07 4544.12 3645.31 4551.16 3636.36Z" fill="#7CC8EC"/><path d="M4343.47 3766.49 4458.11 3651.84 4476.2 3669.93 4361.56 3784.58Z" fill="#7CC8EC"/><path d="M4467.13 3643.11 4495.4 3614.85 4513.49 3632.94 4485.22 3661.2Z" fill="#7CC8EC"/></g></g></g><g><g><g><path d="M4437.77 3787.21C4447.52 3856.73 4428.75 3936.34 4428.75 3936.34 4445.47 3947.09 4475.15 3954.41 4512.88 3954.41 4550.61 3954.41 4580.29 3947.09 4597.01 3936.34 4597.01 3936.34 4578.25 3856.73 4587.99 3787.21 4613.1 3786.04 4629.05 3783.43 4629.05 3777.57 4629.05 3761.89 4577.04 3746.59 4512.88 3746.59 4448.73 3746.59 4396.72 3761.89 4396.72 3777.57 4396.72 3783.43 4412.67 3786.04 4437.77 3787.21ZM4456.98 3781.5C4462.66 3780.56 4468.56 3779.67 4474.63 3778.9 4480.13 3831.78 4473.38 3893.76 4469.52 3922.2 4463.22 3923.34 4457 3924.86 4450.88 3926.75 4454.16 3903.85 4462.54 3836.66 4456.98 3781.5Z" fill="#7CC8EC"/></g></g></g><path d="M4319.5 3569.17C4319.5 3537.32 4345.32 3511.5 4377.17 3511.5L4607.83 3511.5C4639.68 3511.5 4665.5 3537.32 4665.5 3569.17L4665.5 3925.83C4665.5 3957.68 4639.68 3983.5 4607.83 3983.5L4377.17 3983.5C4345.32 3983.5 4319.5 3957.68 4319.5 3925.83Z" stroke="#7CC8EC" stroke-width="6.875" stroke-linejoin="round" stroke-miterlimit="10" fill="none" fill-rule="evenodd"/><text fill="#4C4D4D" font-family="Open Sans,Open Sans_MSFontService,sans-serif" font-weight="400" font-size="50" transform="matrix(1 0 0 1 4489.65 3402)">PostBOUND </text><text fill="#4C4D4D" font-family="Open Sans,Open Sans_MSFontService,sans-serif" font-weight="400" font-size="50" transform="matrix(1 0 0 1 4489.65 3463)">optimization pipeline</text><path d="M2832.5 3499.5C3203.92 3519.8 3435.19 3486.26 3960.5 3499.5 3947.19 3662.14 3953 3788.69 3960.5 3853.5 3601.06 3832.05 3382.11 3862.19 2832.5 3853.5 2837.22 3806.71 2834.35 3573.33 2832.5 3499.5Z" fill="#FFFFFF" fill-rule="evenodd"/><path d="M2832.5 3499.5C3270.9 3460.12 3785.12 3482.11 3960.5 3499.5 3986.89 3592.33 3992.02 3748.85 3960.5 3853.5 3639.58 3841.66 3309.49 3844.64 2832.5 3853.5 2837.42 3732.71 2819.22 3626 2832.5 3499.5Z" stroke="#4C4D4D" stroke-width="4.58333" stroke-miterlimit="8" fill="none" fill-rule="evenodd"/><text fill="#0000FF" font-family="Consolas,Consolas_MSFontService,sans-serif" font-weight="400" font-size="48" transform="matrix(1 0 0 1 2864.75 3564)">SELECT</text><text font-family="Consolas,Consolas_MSFontService,sans-serif" font-weight="400" font-size="48" transform="matrix(1 0 0 1 3049.23 3564)">*</text><text fill="#0000FF" font-family="Consolas,Consolas_MSFontService,sans-serif" font-weight="400" font-size="48" transform="matrix(1 0 0 1 2864.75 3627)">FROM</text><text fill="#3B3B3B" font-family="Consolas,Consolas_MSFontService,sans-serif" font-weight="400" font-size="48" transform="matrix(1 0 0 1 2996.52 3627)">title </text><text fill="#0000FF" font-family="Consolas,Consolas_MSFontService,sans-serif" font-weight="400" font-size="48" transform="matrix(1 0 0 1 3154.65 3627)">t</text><text fill="#0000FF" font-family="Consolas,Consolas_MSFontService,sans-serif" font-weight="400" font-size="48" transform="matrix(1 0 0 1 2864.75 3692)">JOIN</text><text fill="#3B3B3B" font-family="Consolas,Consolas_MSFontService,sans-serif" font-weight="400" font-size="48" transform="matrix(1 0 0 1 2996.52 3692)">movie_info</text><text fill="#3B3B3B" font-family="Consolas,Consolas_MSFontService,sans-serif" font-weight="400" font-size="48" transform="matrix(1 0 0 1 3286.42 3692)">mi </text><text fill="#0000FF" font-family="Consolas,Consolas_MSFontService,sans-serif" font-weight="400" font-size="48" transform="matrix(1 0 0 1 3365.48 3692)">ON</text><text fill="#3B3B3B" font-family="Consolas,Consolas_MSFontService,sans-serif" font-weight="400" font-size="48" transform="matrix(1 0 0 1 3444.54 3692)">t.id </text><text font-family="Consolas,Consolas_MSFontService,sans-serif" font-weight="400" font-size="48" transform="matrix(1 0 0 1 3576.31 3692)">=</text><text fill="#3B3B3B" font-family="Consolas,Consolas_MSFontService,sans-serif" font-weight="400" font-size="48" transform="matrix(1 0 0 1 3629.02 3692)">mi.movie_id</text><text fill="#0000FF" font-family="Consolas,Consolas_MSFontService,sans-serif" font-weight="400" font-size="48" transform="matrix(1 0 0 1 2864.75 3756)">JOIN</text><text fill="#3B3B3B" font-family="Consolas,Consolas_MSFontService,sans-serif" font-weight="400" font-size="48" transform="matrix(1 0 0 1 2996.52 3756)">cast_info</text><text fill="#3B3B3B" font-family="Consolas,Consolas_MSFontService,sans-serif" font-weight="400" font-size="48" transform="matrix(1 0 0 1 3286.42 3756)">ci </text><text fill="#0000FF" font-family="Consolas,Consolas_MSFontService,sans-serif" font-weight="400" font-size="48" transform="matrix(1 0 0 1 3365.48 3756)">ON</text><text fill="#3B3B3B" font-family="Consolas,Consolas_MSFontService,sans-serif" font-weight="400" font-size="48" transform="matrix(1 0 0 1 3444.54 3756)">t.id </text><text font-family="Consolas,Consolas_MSFontService,sans-serif" font-weight="400" font-size="48" transform="matrix(1 0 0 1 3576.31 3756)">=</text><text fill="#3B3B3B" font-family="Consolas,Consolas_MSFontService,sans-serif" font-weight="400" font-size="48" transform="matrix(1 0 0 1 3629.02 3756)">ci.movie_id</text><text fill="#0000FF" font-family="Consolas,Consolas_MSFontService,sans-serif" font-weight="400" font-size="48" transform="matrix(1 0 0 1 2864.75 3820)">WHERE</text><text fill="#3B3B3B" font-family="Consolas,Consolas_MSFontService,sans-serif" font-weight="400" font-size="48" transform="matrix(1 0 0 1 3022.88 3820)">t.production_year</text><text font-family="Consolas,Consolas_MSFontService,sans-serif" font-weight="400" font-size="48" transform="matrix(1 0 0 1 3497.25 3820)">&gt;</text><text fill="#098658" font-family="Consolas,Consolas_MSFontService,sans-serif" font-weight="400" font-size="48" transform="matrix(1 0 0 1 3549.96 3820)">2010</text><path d="M4086.5 3649.75 4137.5 3649.75 4137.5 3599.5 4188.5 3700 4137.5 3800.5 4137.5 3750.25 4086.5 3750.25Z" stroke="#052842" stroke-width="4.58333" stroke-miterlimit="8" fill="#7F7F7F" fill-rule="evenodd"/><text fill="#4C4D4D" font-family="Open Sans,Open Sans_MSFontService,sans-serif" font-weight="700" font-size="50" text-decoration="underline" transform="matrix(1 0 0 1 3247.71 3425)">Input query</text><text fill="#4C4D4D" font-family="Open Sans,Open Sans_MSFontService,sans-serif" font-weight="700" font-size="50" text-decoration="underline" transform="matrix(1 0 0 1 5519.88 4139)">Selected query plan</text><text fill="#4C4D4D" font-family="Open Sans,Open Sans_MSFontService,sans-serif" font-weight="700" font-size="50" text-decoration="underline" transform="matrix(1 0 0 1 3081.28 4160)">Hinted (optimized) query</text><path d="M0 50.25 50.5 50.25 50.5 0 101 100.5 50.5 201 50.5 150.75 0 150.75Z" stroke="#052842" stroke-width="4.58333" stroke-miterlimit="8" fill="#7F7F7F" fill-rule="evenodd" transform="matrix(-1 0 0 1 4252.5 4439.5)"/><path d="M4936.5 3676.5 5086.86 3676.5C5153.44 3676.5 5207.42 3730.47 5207.42 3797.06L5207.42 4069.41 5243.5 4069.41 5169.04 4164.5 5094.59 4069.41 5130.67 4069.41 5130.67 3797.06C5130.67 3772.86 5111.06 3753.25 5086.86 3753.25L4936.5 3753.25Z" stroke="#1B1B1B" stroke-width="4.58333" stroke-miterlimit="8" fill="#7F7F7F" fill-rule="evenodd"/><path d="M0 307 0 156.637C-1.55004e-14 90.0562 53.9747 36.0814 120.556 36.0814L391.907 36.0819 391.907 0 487 74.4567 391.907 148.913 391.907 112.832 120.556 112.832C96.3626 112.832 76.7499 132.445 76.7499 156.638L76.7499 307Z" stroke="#1B1B1B" stroke-width="4.58333" stroke-miterlimit="8" fill="#7F7F7F" fill-rule="evenodd" transform="matrix(1 0 0 -1 3290.5 5393.5)"/></g></svg>