<svg width="692" height="1161" xmlns="http://www.w3.org/2000/svg" xmlns:xlink="http://www.w3.org/1999/xlink" xml:space="preserve" overflow="hidden"><g transform="translate(-2402 -455)"><path d="M2404.5 669.5C2404.5 656.798 2414.8 646.5 2427.5 646.5L2760.5 646.5C2773.2 646.5 2783.5 656.798 2783.5 669.5L2783.5 761.5C2783.5 774.202 2773.2 784.5 2760.5 784.5L2427.5 784.5C2414.8 784.5 2404.5 774.202 2404.5 761.5Z" stroke="#052842" stroke-width="4.58333" stroke-miterlimit="8" fill="#1B6AA3" fill-rule="evenodd"/><text fill="#FFFFFF" font-family="Open Sans,Open Sans_MSFontService,sans-serif" font-weight="400" font-size="48" transform="matrix(1 0 0 1 2448.64 731)">Join ordering</text><path d="M2404.5 1195.5C2404.5 1182.8 2414.8 1172.5 2427.5 1172.5L2760.5 1172.5C2773.2 1172.5 2783.5 1182.8 2783.5 1195.5L2783.5 1287.5C2783.5 1300.2 2773.2 1310.5 2760.5 1310.5L2427.5 1310.5C2414.8 1310.5 2404.5 1300.2 2404.5 1287.5Z" stroke="#052842" stroke-width="4.58333" stroke-miterlimit="8" fill="#1B6AA3" fill-rule="evenodd"/><text fill="#FFFFFF" font-family="Open Sans,Open Sans_MSFontService,sans-serif" font-weight="400" font-size="48" transform="matrix(1 0 0 1 2490.33 1228)">Operator </text><text fill="#FFFFFF" font-family="Open Sans,Open Sans_MSFontService,sans-serif" font-weight="400" font-size="48" transform="matrix(1 0 0 1 2493.2 1286)">selection</text><path d="M2430.5 1491C2430.5 1444.33 2503.7 1406.5 2594 1406.5 2684.3 1406.5 2757.5 1444.33 2757.5 1491 2757.5 1537.67 2684.3 1575.5 2594 1575.5 2503.7 1575.5 2430.5 1537.67 2430.5 1491Z" stroke="#84CBC5" stroke-width="4.58333" stroke-miterlimit="8" fill="#FFFFFF" fill-rule="evenodd"/><text fill="#4C4D4D" font-family="Open Sans,Open Sans_MSFontService,sans-serif" font-weight="400" font-size="41" transform="matrix(1 0 0 1 2516.56 1480)">Physical </text><text fill="#4C4D4D" font-family="Open Sans,Open Sans_MSFontService,sans-serif" font-weight="400" font-size="41" transform="matrix(1 0 0 1 2551.23 1529)">plan</text><path d="M2595.79 539.5 2595.79 624.285 2591.21 624.285 2591.21 539.5ZM2607.25 619.702 2593.5 647.202 2579.75 619.702Z" fill="#4C4D4D"/><path d="M2.29167-0.00264918 2.39437 88.8444-2.18896 88.8497-2.29167 0.00264918ZM13.8474 84.2478 0.129199 111.764-13.6526 84.2796Z" fill="#4C4D4D" transform="matrix(-1 0 0 1 2593.63 784.5)"/><path d="M2.29166-0.00306271 2.38988 73.4833-2.19345 73.4894-2.29166 0.00306271ZM13.8421 68.8847 0.128839 96.403-13.6579 68.9214Z" fill="#4C4D4D" transform="matrix(-1 0 0 1 2593.63 1310.5)"/><path d="M2430.5 981C2430.5 934.332 2503.7 896.5 2594 896.5 2684.3 896.5 2757.5 934.332 2757.5 981 2757.5 1027.67 2684.3 1065.5 2594 1065.5 2503.7 1065.5 2430.5 1027.67 2430.5 981Z" stroke="#84CBC5" stroke-width="4.58333" stroke-miterlimit="8" fill="#FFFFFF" fill-rule="evenodd"/><text fill="#4C4D4D" font-family="Open Sans,Open Sans_MSFontService,sans-serif" font-weight="400" font-size="41" transform="matrix(1 0 0 1 2527.29 970)">Logical </text><text fill="#4C4D4D" font-family="Open Sans,Open Sans_MSFontService,sans-serif" font-weight="400" font-size="41" transform="matrix(1 0 0 1 2551.35 1019)">plan</text><text fill="#4C4D4D" font-family="Open Sans,Open Sans_MSFontService,sans-serif" font-weight="400" font-size="41" transform="matrix(1 0 0 1 2493.19 511)">SQL query</text><path d="M2.29167-7.679e-06 2.29195 84.7855-2.29138 84.7855-2.29167 7.679e-06ZM13.7503 80.2022 0.000360892 107.702-13.7497 80.2022Z" fill="#4C4D4D" transform="matrix(-1 0 0 1 2593.5 1065.5)"/><path d="M2946.5 1397.5C2946.5 1381.48 2959.48 1368.5 2975.5 1368.5 2991.52 1368.5 3004.5 1381.48 3004.5 1397.5 3004.5 1413.52 2991.52 1426.5 2975.5 1426.5 2959.48 1426.5 2946.5 1413.52 2946.5 1397.5Z" stroke="#672C26" stroke-width="4.58333" stroke-miterlimit="8" fill="#F47264" fill-rule="evenodd"/><path d="M2889.5 1491C2889.5 1475.26 2902.26 1462.5 2918 1462.5 2933.74 1462.5 2946.5 1475.26 2946.5 1491 2946.5 1506.74 2933.74 1519.5 2918 1519.5 2902.26 1519.5 2889.5 1506.74 2889.5 1491Z" stroke="#1B1B1B" stroke-width="4.58333" stroke-miterlimit="8" fill="#4C4D4D" fill-rule="evenodd"/><path d="M3003.5 1491C3003.5 1475.26 3016.48 1462.5 3032.5 1462.5 3048.52 1462.5 3061.5 1475.26 3061.5 1491 3061.5 1506.74 3048.52 1519.5 3032.5 1519.5 3016.48 1519.5 3003.5 1506.74 3003.5 1491Z" stroke="#345452" stroke-width="4.58333" stroke-miterlimit="8" fill="#84CBC5" fill-rule="evenodd"/><path d="M2831.5 1584.5C2831.5 1568.48 2844.48 1555.5 2860.5 1555.5 2876.52 1555.5 2889.5 1568.48 2889.5 1584.5 2889.5 1600.52 2876.52 1613.5 2860.5 1613.5 2844.48 1613.5 2831.5 1600.52 2831.5 1584.5Z" stroke="#052842" stroke-width="4.58333" stroke-miterlimit="8" fill="#1B6AA3" fill-rule="evenodd"/><path d="M2946.5 1584.5C2946.5 1568.48 2959.48 1555.5 2975.5 1555.5 2991.52 1555.5 3004.5 1568.48 3004.5 1584.5 3004.5 1600.52 2991.52 1613.5 2975.5 1613.5 2959.48 1613.5 2946.5 1600.52 2946.5 1584.5Z" stroke="#345452" stroke-width="4.58333" stroke-miterlimit="8" fill="#84CBC5" fill-rule="evenodd"/><path d="M0 0 37.2437 44.3349" stroke="#4C4D4D" stroke-width="6.875" stroke-linecap="square" stroke-miterlimit="8" stroke-dasharray="20.625 6.875" fill="none" fill-rule="evenodd" transform="matrix(1 0 0 -1 2860.5 1555.83)"/><path d="M2975.74 1555.83 2938.5 1511.5" stroke="#4C4D4D" stroke-width="6.875" stroke-linecap="square" stroke-miterlimit="8" stroke-dasharray="20.625 6.875" fill="none" fill-rule="evenodd"/><path d="M0 0 37.2437 44.3349" stroke="#4C4D4D" stroke-width="6.875" stroke-linecap="square" stroke-miterlimit="8" stroke-dasharray="20.625 6.875" fill="none" fill-rule="evenodd" transform="matrix(1 0 0 -1 2917.5 1462.84)"/><path d="M3032.3 1462.84 2995.5 1418.5" stroke="#4C4D4D" stroke-width="6.875" stroke-linecap="square" stroke-miterlimit="8" stroke-dasharray="20.625 6.875" fill="none" fill-rule="evenodd"/><path d="M2946.5 887.5C2946.5 871.484 2959.48 858.5 2975.5 858.5 2991.52 858.5 3004.5 871.484 3004.5 887.5 3004.5 903.516 2991.52 916.5 2975.5 916.5 2959.48 916.5 2946.5 903.516 2946.5 887.5Z" stroke="#4C4D4D" stroke-width="4.58333" stroke-miterlimit="8" fill="#FFFFFF" fill-rule="evenodd"/><text fill="#4C4D4D" font-family="Cambria Math,Cambria Math_MSFontService,sans-serif" font-weight="700" font-size="37" transform="matrix(1 0 0 1 2956.47 900)">⨝</text><path d="M0 0 37.2437 44.3349" stroke="#4C4D4D" stroke-width="6.875" stroke-linecap="square" stroke-miterlimit="8" stroke-dasharray="20.625 6.875" fill="none" fill-rule="evenodd" transform="matrix(-1 0 0 1 2897.74 1001.5)"/><path d="M2889.5 980.5C2889.5 964.484 2902.26 951.5 2918 951.5 2933.74 951.5 2946.5 964.484 2946.5 980.5 2946.5 996.516 2933.74 1009.5 2918 1009.5 2902.26 1009.5 2889.5 996.516 2889.5 980.5Z" stroke="#4C4D4D" stroke-width="4.58333" stroke-miterlimit="8" fill="#FFFFFF" fill-rule="evenodd"/><text fill="#4C4D4D" font-family="Cambria Math,Cambria Math_MSFontService,sans-serif" font-weight="700" font-size="37" transform="matrix(1 0 0 1 2898.86 993)">⨝</text><path d="M3032.5 980.5C3032.5 964.484 3045.26 951.5 3061 951.5 3076.74 951.5 3089.5 964.484 3089.5 980.5 3089.5 996.516 3076.74 1009.5 3061 1009.5 3045.26 1009.5 3032.5 996.516 3032.5 980.5Z" stroke="#4C4D4D" stroke-width="4.58333" stroke-miterlimit="8" fill="#FFFFFF" fill-rule="evenodd"/><text fill="#4C4D4D" font-family="Open Sans,Open Sans_MSFontService,sans-serif" font-style="oblique" font-weight="700" font-size="37" transform="matrix(1 0 0 1 3050.03 993)">T</text><path d="M2831.5 1074.5C2831.5 1058.48 2844.48 1045.5 2860.5 1045.5 2876.52 1045.5 2889.5 1058.48 2889.5 1074.5 2889.5 1090.52 2876.52 1103.5 2860.5 1103.5 2844.48 1103.5 2831.5 1090.52 2831.5 1074.5Z" stroke="#4C4D4D" stroke-width="4.58333" stroke-miterlimit="8" fill="#FFFFFF" fill-rule="evenodd"/><text fill="#4C4D4D" font-family="Open Sans,Open Sans_MSFontService,sans-serif" font-style="oblique" font-weight="700" font-size="37" transform="matrix(1 0 0 1 2847.84 1087)">R</text><path d="M2946.5 1074.5C2946.5 1058.48 2959.26 1045.5 2975 1045.5 2990.74 1045.5 3003.5 1058.48 3003.5 1074.5 3003.5 1090.52 2990.74 1103.5 2975 1103.5 2959.26 1103.5 2946.5 1090.52 2946.5 1074.5Z" stroke="#4C4D4D" stroke-width="4.58333" stroke-miterlimit="8" fill="#FFFFFF" fill-rule="evenodd"/><text fill="#4C4D4D" font-family="Open Sans,Open Sans_MSFontService,sans-serif" font-style="oblique" font-weight="700" font-size="37" transform="matrix(1 0 0 1 2964.56 1087)">S</text><path d="M2938.5 1001.5 2975.23 1045.83" stroke="#4C4D4D" stroke-width="6.875" stroke-linecap="square" stroke-miterlimit="8" stroke-dasharray="20.625 6.875" fill="none" fill-rule="evenodd"/><path d="M0 0 37.2437 44.3349" stroke="#4C4D4D" stroke-width="6.875" stroke-linecap="square" stroke-miterlimit="8" stroke-dasharray="20.625 6.875" fill="none" fill-rule="evenodd" transform="matrix(-1 0 0 1 2954.74 907.5)"/><path d="M2995.5 907.5 3040.29 960.272" stroke="#4C4D4D" stroke-width="6.875" stroke-linecap="square" stroke-miterlimit="8" stroke-dasharray="20.625 6.875" fill="none" fill-rule="evenodd"/></g></svg>