<svg width="2958" height="1177" xmlns="http://www.w3.org/2000/svg" xmlns:xlink="http://www.w3.org/1999/xlink" xml:space="preserve" overflow="hidden"><g transform="translate(-2324 -2920)"><path d="M2326.5 3184C2326.5 3160.53 2345.53 3141.5 2369 3141.5L3471 3141.5C3494.47 3141.5 3513.5 3160.53 3513.5 3184L3513.5 3354C3513.5 3377.47 3494.47 3396.5 3471 3396.5L2369 3396.5C2345.53 3396.5 2326.5 3377.47 2326.5 3354Z" stroke="#1B6AA3" stroke-width="4.58333" stroke-miterlimit="8" fill="#FFFFFF" fill-rule="evenodd"/><text fill="#4C4D4D" font-family="Open Sans,Open Sans_MSFontService,sans-serif" font-weight="400" font-size="60" transform="matrix(1 0 0 1 2371.42 3228)">Query Preparation, </text><text fill="#4C4D4D" font-family="Open Sans,Open Sans_MSFontService,sans-serif" font-weight="400" font-size="55" transform="matrix(1 0 0 1 2919.13 3228)">e.g.,</text><text fill="#4C4D4D" font-family="Wingdings,Wingdings_MSFontService,sans-serif" font-weight="400" font-size="50" transform="matrix(1 0 0 1 2371.42 3291)"></text><text fill="#4C4D4D" font-family="Open Sans,Open Sans_MSFontService,sans-serif" font-weight="400" font-size="50" transform="matrix(1 0 0 1 2436.73 3291)">Query parsing</text><text fill="#4C4D4D" font-family="Wingdings,Wingdings_MSFontService,sans-serif" font-weight="400" font-size="50" transform="matrix(1 0 0 1 2371.42 3351)"></text><text fill="#4C4D4D" font-family="Open Sans,Open Sans_MSFontService,sans-serif" font-weight="400" font-size="50" transform="matrix(1 0 0 1 2436.73 3351)">Join graph construction</text><path d="M2326.5 3694.67C2326.5 3665.86 2349.86 3642.5 2378.67 3642.5L3461.33 3642.5C3490.14 3642.5 3513.5 3665.86 3513.5 3694.67L3513.5 3903.33C3513.5 3932.14 3490.14 3955.5 3461.33 3955.5L2378.67 3955.5C2349.86 3955.5 2326.5 3932.14 2326.5 3903.33Z" stroke="#1B6AA3" stroke-width="4.58333" stroke-miterlimit="8" fill="#FFFFFF" fill-rule="evenodd"/><text fill="#4C4D4D" font-family="Open Sans,Open Sans_MSFontService,sans-serif" font-weight="400" font-size="60" transform="matrix(1 0 0 1 2374.26 3728)">Query Optimization</text><text fill="#4C4D4D" font-family="Wingdings,Wingdings_MSFontService,sans-serif" font-weight="400" font-size="50" transform="matrix(1 0 0 1 2374.26 3791)"></text><text fill="#4C4D4D" font-family="Open Sans,Open Sans_MSFontService,sans-serif" font-weight="400" font-size="50" transform="matrix(1 0 0 1 2439.57 3791)">Selection of custom optimization strategies</text><text fill="#4C4D4D" font-family="Wingdings,Wingdings_MSFontService,sans-serif" font-weight="400" font-size="50" transform="matrix(1 0 0 1 2374.26 3851)"></text><text fill="#4C4D4D" font-family="Open Sans,Open Sans_MSFontService,sans-serif" font-weight="400" font-size="50" transform="matrix(1 0 0 1 2439.57 3851)">Combination of different strategies in </text><text fill="#4C4D4D" font-family="Open Sans,Open Sans_MSFontService,sans-serif" font-weight="400" font-size="50" transform="matrix(1 0 0 1 2439.57 3912)">Optimization Pipelines</text><path d="M4092.5 3714C4092.5 3690.53 4111.53 3671.5 4135 3671.5L5237 3671.5C5260.47 3671.5 5279.5 3690.53 5279.5 3714L5279.5 3884C5279.5 3907.47 5260.47 3926.5 5237 3926.5L4135 3926.5C4111.53 3926.5 4092.5 3907.47 4092.5 3884Z" stroke="#1B6AA3" stroke-width="4.58333" stroke-miterlimit="8" fill="#FFFFFF" fill-rule="evenodd"/><text fill="#4C4D4D" font-family="Open Sans,Open Sans_MSFontService,sans-serif" font-weight="400" font-size="60" transform="matrix(1 0 0 1 4137.59 3758)">Query Hinting</text><text fill="#4C4D4D" font-family="Wingdings,Wingdings_MSFontService,sans-serif" font-weight="400" font-size="50" transform="matrix(1 0 0 1 4137.59 3821)"></text><text fill="#4C4D4D" font-family="Open Sans,Open Sans_MSFontService,sans-serif" font-weight="400" font-size="50" transform="matrix(1 0 0 1 4199.46 3821)">Database</text><text fill="#4C4D4D" font-family="Open Sans,Open Sans_MSFontService,sans-serif" font-weight="400" font-size="50" transform="matrix(1 0 0 1 4421.18 3821)">-</text><text fill="#4C4D4D" font-family="Open Sans,Open Sans_MSFontService,sans-serif" font-weight="400" font-size="50" transform="matrix(1 0 0 1 4437.22 3821)">specific plan transformation</text><text fill="#4C4D4D" font-family="Wingdings,Wingdings_MSFontService,sans-serif" font-weight="400" font-size="50" transform="matrix(1 0 0 1 4137.59 3881)"></text><text fill="#4C4D4D" font-family="Open Sans,Open Sans_MSFontService,sans-serif" font-weight="400" font-size="50" transform="matrix(1 0 0 1 4199.46 3881)">Enforces physical operators + join order</text><path d="M4092.5 3185.83C4092.5 3162.45 4111.45 3143.5 4134.83 3143.5L5237.17 3143.5C5260.55 3143.5 5279.5 3162.45 5279.5 3185.83L5279.5 3355.17C5279.5 3378.55 5260.55 3397.5 5237.17 3397.5L4134.83 3397.5C4111.45 3397.5 4092.5 3378.55 4092.5 3355.17Z" stroke="#1B6AA3" stroke-width="4.58333" stroke-miterlimit="8" fill="#FFFFFF" fill-rule="evenodd"/><text fill="#4C4D4D" font-family="Open Sans,Open Sans_MSFontService,sans-serif" font-weight="400" font-size="60" transform="matrix(1 0 0 1 4137.59 3230)">Benchmarking</text><text fill="#4C4D4D" font-family="Wingdings,Wingdings_MSFontService,sans-serif" font-weight="400" font-size="50" transform="matrix(1 0 0 1 4137.59 3293)"></text><text fill="#4C4D4D" font-family="Open Sans,Open Sans_MSFontService,sans-serif" font-weight="400" font-size="50" transform="matrix(1 0 0 1 4199.46 3293)">Using the actual execution engine</text><text fill="#4C4D4D" font-family="Wingdings,Wingdings_MSFontService,sans-serif" font-weight="400" font-size="50" transform="matrix(1 0 0 1 4137.59 3353)"></text><text fill="#4C4D4D" font-family="Open Sans,Open Sans_MSFontService,sans-serif" font-weight="400" font-size="50" transform="matrix(1 0 0 1 4199.46 3353)">Supported systems: PostgreSQL, (MySQL)</text><path d="M3.21196e-06-5.15625 553.57-5.15591 553.57 5.15659-3.21196e-06 5.15625ZM548.413-15.4684 579.351 0.000360892 548.413 15.4691Z" fill="#4C4D4D" transform="matrix(1 0 0 -1 3513 3799)"/><path d="M2924.16 3396 2924.16 3616.75 2913.84 3616.75 2913.84 3396ZM2934.47 3611.59 2919 3642.53 2903.53 3611.59Z" fill="#4C4D4D"/><path d="M5.15625-6.78517e-06 5.15658 248.471-5.15592 248.471-5.15625 6.78517e-06ZM15.4691 243.315 0.000360892 274.253-15.4684 243.315Z" fill="#4C4D4D" transform="matrix(1 0 0 -1 4686 3671.25)"/><path d="M2859.5 3081 2884.25 3081 2884.25 2924.5 2933.75 2924.5 2933.75 3081 2958.5 3081 2909 3130.5Z" stroke="#767171" stroke-width="4.58333" stroke-miterlimit="8" fill="#AFABAB" fill-rule="evenodd"/><text fill="#4C4D4D" font-family="Open Sans,Open Sans_MSFontService,sans-serif" font-weight="400" font-size="50" transform="matrix(1 0 0 1 2523.91 3525)">Query object</text><text fill="#4C4D4D" font-family="Open Sans,Open Sans_MSFontService,sans-serif" font-weight="400" font-size="50" transform="matrix(1 0 0 1 3650.02 3768)">Query plan</text><text fill="#4C4D4D" font-family="Open Sans,Open Sans_MSFontService,sans-serif" font-weight="400" font-size="50" transform="matrix(1 0 0 1 4342.43 3535)">Hinted query</text><text fill="#4C4D4D" font-family="Open Sans,Open Sans_MSFontService,sans-serif" font-weight="400" font-size="50" transform="matrix(1 0 0 1 2537.79 3016)">Input query</text><path d="M0 156 25.0001 156 25.0001 0 75 0 75 156 100 156 50.0001 206Z" stroke="#767171" stroke-width="4.58333" stroke-miterlimit="8" fill="#AFABAB" fill-rule="evenodd" transform="matrix(1 0 0 -1 4617.5 3130.5)"/><text fill="#4C4D4D" font-family="Open Sans,Open Sans_MSFontService,sans-serif" font-weight="400" font-size="50" transform="matrix(1 0 0 1 4345.87 3038)">Benchmark</text><text fill="#4C4D4D" font-family="Open Sans,Open Sans_MSFontService,sans-serif" font-weight="400" font-size="50" transform="matrix(1 0 0 1 4479.93 3099)">result</text><text fill="#0000FF" font-family="Consolas,Consolas_MSFontService,sans-serif" font-weight="400" font-size="50" transform="matrix(1 0 0 1 2991.13 2988)">SELECT</text><text font-family="Consolas,Consolas_MSFontService,sans-serif" font-weight="400" font-size="50" transform="matrix(1 0 0 1 3183.63 2988)">*</text><text fill="#0000FF" font-family="Consolas,Consolas_MSFontService,sans-serif" font-weight="400" font-size="50" transform="matrix(1 0 0 1 2991.13 3052)">FROM</text><text fill="#3B3B3B" font-family="Consolas,Consolas_MSFontService,sans-serif" font-weight="400" font-size="50" transform="matrix(1 0 0 1 3128.63 3052)">...</text><path d="M3756.5 3879C3756.5 3863.26 3769.26 3850.5 3785 3850.5 3800.74 3850.5 3813.5 3863.26 3813.5 3879 3813.5 3894.74 3800.74 3907.5 3785 3907.5 3769.26 3907.5 3756.5 3894.74 3756.5 3879Z" stroke="#672C26" stroke-width="4.58333" stroke-miterlimit="8" fill="#F47264" fill-rule="evenodd"/><path d="M3698.5 3972.5C3698.5 3956.48 3711.48 3943.5 3727.5 3943.5 3743.52 3943.5 3756.5 3956.48 3756.5 3972.5 3756.5 3988.52 3743.52 4001.5 3727.5 4001.5 3711.48 4001.5 3698.5 3988.52 3698.5 3972.5Z" stroke="#1B1B1B" stroke-width="4.58333" stroke-miterlimit="8" fill="#4C4D4D" fill-rule="evenodd"/><path d="M3813.5 3972.5C3813.5 3956.48 3826.26 3943.5 3842 3943.5 3857.74 3943.5 3870.5 3956.48 3870.5 3972.5 3870.5 3988.52 3857.74 4001.5 3842 4001.5 3826.26 4001.5 3813.5 3988.52 3813.5 3972.5Z" stroke="#345452" stroke-width="4.58333" stroke-miterlimit="8" fill="#84CBC5" fill-rule="evenodd"/><path d="M3640.5 4066C3640.5 4050.26 3653.48 4037.5 3669.5 4037.5 3685.52 4037.5 3698.5 4050.26 3698.5 4066 3698.5 4081.74 3685.52 4094.5 3669.5 4094.5 3653.48 4094.5 3640.5 4081.74 3640.5 4066Z" stroke="#052842" stroke-width="4.58333" stroke-miterlimit="8" fill="#1B6AA3" fill-rule="evenodd"/><path d="M3756.5 4066C3756.5 4050.26 3769.26 4037.5 3785 4037.5 3800.74 4037.5 3813.5 4050.26 3813.5 4066 3813.5 4081.74 3800.74 4094.5 3785 4094.5 3769.26 4094.5 3756.5 4081.74 3756.5 4066Z" stroke="#345452" stroke-width="4.58333" stroke-miterlimit="8" fill="#84CBC5" fill-rule="evenodd"/><path d="M0 0 37.2437 44.3349" stroke="#4C4D4D" stroke-width="6.875" stroke-linecap="square" stroke-miterlimit="8" stroke-dasharray="20.625 6.875" fill="none" fill-rule="evenodd" transform="matrix(1 0 0 -1 3669.5 4037.83)"/><path d="M3784.74 4037.83 3747.5 3993.5" stroke="#4C4D4D" stroke-width="6.875" stroke-linecap="square" stroke-miterlimit="8" stroke-dasharray="20.625 6.875" fill="none" fill-rule="evenodd"/><path d="M0 0 37.2437 44.3349" stroke="#4C4D4D" stroke-width="6.875" stroke-linecap="square" stroke-miterlimit="8" stroke-dasharray="20.625 6.875" fill="none" fill-rule="evenodd" transform="matrix(1 0 0 -1 3727.5 3943.83)"/><path d="M3842.3 3943.83 3805.5 3899.5" stroke="#4C4D4D" stroke-width="6.875" stroke-linecap="square" stroke-miterlimit="8" stroke-dasharray="20.625 6.875" fill="none" fill-rule="evenodd"/><text fill="#008000" font-family="Consolas,Consolas_MSFontService,sans-serif" font-weight="400" font-size="50" transform="matrix(1 0 0 1 4753.43 3488)">/* ... */</text><text fill="#0000FF" font-family="Consolas,Consolas_MSFontService,sans-serif" font-weight="400" font-size="50" transform="matrix(1 0 0 1 4753.43 3552)">SELECT</text><text font-family="Consolas,Consolas_MSFontService,sans-serif" font-weight="400" font-size="50" transform="matrix(1 0 0 1 4945.93 3552)">*</text><text fill="#0000FF" font-family="Consolas,Consolas_MSFontService,sans-serif" font-weight="400" font-size="50" transform="matrix(1 0 0 1 4753.43 3616)">FROM</text><text fill="#3B3B3B" font-family="Consolas,Consolas_MSFontService,sans-serif" font-weight="400" font-size="50" transform="matrix(1 0 0 1 4890.93 3616)">...</text><path d="M4757.5 2945.71 4856.46 2945.71 4856.46 2981.22 4757.5 2981.22Z" fill="#4C4D4D" fill-rule="evenodd"/><path d="M4856.46 2945.71 4955.42 2945.71 4955.42 2981.22 4856.46 2981.22Z" fill="#4C4D4D" fill-rule="evenodd"/><path d="M4955.42 2945.71 5054.38 2945.71 5054.38 2981.22 4955.42 2981.22Z" fill="#4C4D4D" fill-rule="evenodd"/><path d="M5054.38 2945.71 5153.35 2945.71 5153.35 2981.22 5054.38 2981.22Z" fill="#4C4D4D" fill-rule="evenodd"/><path d="M4757.5 2981.22 4856.46 2981.22 4856.46 3016.72 4757.5 3016.72Z" fill="#D0D0D0" fill-rule="evenodd"/><path d="M4856.46 2981.22 4955.42 2981.22 4955.42 3016.72 4856.46 3016.72Z" fill="#D0D0D0" fill-rule="evenodd"/><path d="M4955.42 2981.22 5054.38 2981.22 5054.38 3016.72 4955.42 3016.72Z" fill="#D0D0D0" fill-rule="evenodd"/><path d="M5054.38 2981.22 5153.35 2981.22 5153.35 3016.72 5054.38 3016.72Z" fill="#D0D0D0" fill-rule="evenodd"/><path d="M4757.5 3016.72 4856.46 3016.72 4856.46 3052.23 4757.5 3052.23Z" fill="#E9E9E9" fill-rule="evenodd"/><path d="M4856.46 3016.72 4955.42 3016.72 4955.42 3052.23 4856.46 3052.23Z" fill="#E9E9E9" fill-rule="evenodd"/><path d="M4955.42 3016.72 5054.38 3016.72 5054.38 3052.23 4955.42 3052.23Z" fill="#E9E9E9" fill-rule="evenodd"/><path d="M5054.38 3016.72 5153.35 3016.72 5153.35 3052.23 5054.38 3052.23Z" fill="#E9E9E9" fill-rule="evenodd"/><path d="M4757.5 3052.23 4856.46 3052.23 4856.46 3087.73 4757.5 3087.73Z" fill="#D0D0D0" fill-rule="evenodd"/><path d="M4856.46 3052.23 4955.42 3052.23 4955.42 3087.73 4856.46 3087.73Z" fill="#D0D0D0" fill-rule="evenodd"/><path d="M4955.42 3052.23 5054.38 3052.23 5054.38 3087.73 4955.42 3087.73Z" fill="#D0D0D0" fill-rule="evenodd"/><path d="M5054.38 3052.23 5153.35 3052.23 5153.35 3087.73 5054.38 3087.73Z" fill="#D0D0D0" fill-rule="evenodd"/><path d="M4757.5 3087.73 4856.46 3087.73 4856.46 3123.24 4757.5 3123.24Z" fill="#E9E9E9" fill-rule="evenodd"/><path d="M4856.46 3087.73 4955.42 3087.73 4955.42 3123.24 4856.46 3123.24Z" fill="#E9E9E9" fill-rule="evenodd"/><path d="M4955.42 3087.73 5054.38 3087.73 5054.38 3123.24 4955.42 3123.24Z" fill="#E9E9E9" fill-rule="evenodd"/><path d="M5054.38 3087.73 5153.35 3087.73 5153.35 3123.24 5054.38 3123.24Z" fill="#E9E9E9" fill-rule="evenodd"/><path d="M4856.46 2943.42 4856.46 3125.53" stroke="#FFFFFF" stroke-width="4.58333" stroke-linejoin="round" stroke-miterlimit="10" fill="none" fill-rule="evenodd"/><path d="M4955.42 2943.42 4955.42 3125.53" stroke="#FFFFFF" stroke-width="4.58333" stroke-linejoin="round" stroke-miterlimit="10" fill="none" fill-rule="evenodd"/><path d="M5054.38 2943.42 5054.38 3125.53" stroke="#FFFFFF" stroke-width="4.58333" stroke-linejoin="round" stroke-miterlimit="10" fill="none" fill-rule="evenodd"/><path d="M4755.2 2981.22 5155.64 2981.22" stroke="#FFFFFF" stroke-width="13.75" stroke-linejoin="round" stroke-miterlimit="10" fill="none" fill-rule="evenodd"/><path d="M4755.2 3016.72 5155.64 3016.72" stroke="#FFFFFF" stroke-width="4.58333" stroke-linejoin="round" stroke-miterlimit="10" fill="none" fill-rule="evenodd"/><path d="M4755.2 3052.23 5155.64 3052.23" stroke="#FFFFFF" stroke-width="4.58333" stroke-linejoin="round" stroke-miterlimit="10" fill="none" fill-rule="evenodd"/><path d="M4755.2 3087.73 5155.64 3087.73" stroke="#FFFFFF" stroke-width="4.58333" stroke-linejoin="round" stroke-miterlimit="10" fill="none" fill-rule="evenodd"/><path d="M4757.5 2943.42 4757.5 3125.53" stroke="#FFFFFF" stroke-width="4.58333" stroke-linejoin="round" stroke-miterlimit="10" fill="none" fill-rule="evenodd"/><path d="M5153.35 2943.42 5153.35 3125.53" stroke="#FFFFFF" stroke-width="4.58333" stroke-linejoin="round" stroke-miterlimit="10" fill="none" fill-rule="evenodd"/><path d="M4755.2 2945.71 5155.64 2945.71" stroke="#FFFFFF" stroke-width="4.58333" stroke-linejoin="round" stroke-miterlimit="10" fill="none" fill-rule="evenodd"/><path d="M4755.2 3123.24 5155.64 3123.24" stroke="#FFFFFF" stroke-width="4.58333" stroke-linejoin="round" stroke-miterlimit="10" fill="none" fill-rule="evenodd"/></g></svg>