<?xml version="1.0" encoding="UTF-8"?>
<svg version="1.1" xmlns="http://www.w3.org/2000/svg" width="625" height="625">
<path d="M0 0 C206.25 0 412.5 0 625 0 C625 206.25 625 412.5 625 625 C418.75 625 212.5 625 0 625 C0 418.75 0 212.5 0 0 Z " fill="#FEFEFE" transform="translate(0,0)"/>
<path d="M0 0 C0.639375 0.639375 1.27875 1.27875 1.9375 1.9375 C2.4015625 2.39640625 2.865625 2.8553125 3.34375 3.328125 C4.53112861 4.52670529 5.6953562 5.74839185 6.84375 6.984375 C28.46407044 29.73411517 61.20581828 42.8781819 91.0625 50.4375 C92.7254249 50.8626384 94.38818107 51.28843722 96.05078125 51.71484375 C96.8804541 51.92737793 97.71012695 52.13991211 98.56494141 52.35888672 C100.83946218 52.95773287 103.09746143 53.59589956 105.35546875 54.25390625 C125.41702263 60.0063554 146.31637726 62.53836937 167 65 C168.1744165 65.14429443 169.34883301 65.28858887 170.55883789 65.43725586 C190.64676785 67.80472701 210.67288097 68.30123545 230.88528824 68.31096649 C232.83599432 68.31246994 234.78669653 68.31760539 236.73739624 68.32281494 C262.33958819 68.3619164 287.68970722 67.07743446 313 63.125 C314.77149506 62.85646682 316.54306197 62.5884072 318.31469727 62.32080078 C330.26664286 60.49882384 342.17260825 58.51607146 354 56 C355.14202881 55.76482666 355.14202881 55.76482666 356.30712891 55.52490234 C366.67251283 53.38773211 376.81042414 50.76220495 386.92089844 47.63671875 C388.99719567 47.00085882 391.07935962 46.3889208 393.1640625 45.78125 C400.76093057 43.53456849 407.88767874 40.90480797 415.03515625 37.4296875 C417.12429474 36.42227684 419.24114408 35.47136456 421.375 34.5625 C425.29789224 32.87159817 429.1184047 31.03592044 432.9375 29.125 C433.6382666 28.77566406 434.3390332 28.42632812 435.06103516 28.06640625 C438.77459848 26.19364391 442.37150019 24.24995401 445.875 22 C449 20 449 20 451 20 C451 19.34 451 18.68 451 18 C452.98 17.505 452.98 17.505 455 17 C455 16.34 455 15.68 455 15 C459.47058824 11 459.47058824 11 462 11 C462.3403125 10.195625 462.3403125 10.195625 462.6875 9.375 C464.44384951 6.19684374 466.58979175 3.71920931 469 1 C469.33 1 469.66 1 470 1 C470.0935648 14.96048946 470.16377232 28.92093008 470.20724869 42.88166904 C470.22811604 49.36433862 470.25641888 55.84679743 470.30175781 62.3293457 C470.34524481 68.58631904 470.36914352 74.84308975 470.37950897 81.10020256 C470.38689512 83.4864108 470.4013185 85.87260805 470.42292023 88.25872993 C470.45199113 91.60314964 470.45595432 94.94673388 470.45410156 98.29125977 C470.46848267 99.2759726 470.48286377 100.26068542 470.49768066 101.27523804 C470.43994992 110.91706461 466.12767841 116.84681075 459.4296875 123.578125 C449.65746501 132.6311796 437.97577092 139.34522622 426 145 C424.08295836 145.99928097 422.16629864 146.99929492 420.25 148 C413.05024728 151.59517064 405.59018083 154.3569737 398 157 C396.80246094 157.41765625 395.60492188 157.8353125 394.37109375 158.265625 C387.27898427 160.59952893 381.47682679 161.76418952 374.09375 160.50390625 C345.50112596 155.83506561 310.08357641 161.14075208 285.9765625 178.453125 C285.36554688 178.90171875 284.75453125 179.3503125 284.125 179.8125 C273.0233069 186.7310538 251.86361442 183.24386866 239.25 183.25 C238.00290253 183.25067474 236.75580505 183.25134949 235.47091675 183.25204468 C197.91216107 183.21983021 160.62178001 179.61581793 124 171 C122.78699219 170.72929687 121.57398438 170.45859375 120.32421875 170.1796875 C78.97192949 160.48569783 28.41148029 144.81998847 1 110 C-1.96488482 104.07023035 -1.14506242 95.92083097 -1.12939453 89.42871094 C-1.13114685 88.51859253 -1.13289917 87.60847412 -1.13470459 86.67077637 C-1.13907089 83.69195596 -1.13620463 80.71319591 -1.1328125 77.734375 C-1.13348681 75.65171294 -1.13445789 73.56905095 -1.13571167 71.48638916 C-1.13718136 67.1357752 -1.13505667 62.78518186 -1.13037109 58.43457031 C-1.12466002 52.8605575 -1.12796614 47.2865927 -1.13394356 41.71258163 C-1.13755673 37.41806679 -1.13640734 33.12356334 -1.13381577 28.82904816 C-1.13314933 26.7733586 -1.13396502 24.71766801 -1.13629532 22.66197968 C-1.13883577 19.79252884 -1.13496217 16.92315597 -1.12939453 14.05371094 C-1.13141876 13.2068573 -1.13344299 12.36000366 -1.13552856 11.48748779 C-1.12128739 7.52396414 -0.98406725 3.86923595 0 0 Z " fill="#39658B" transform="translate(63,141)"/>
<path d="M0 0 C0.66 1.32 1.32 2.64 2 4 C2.66 4 3.32 4 4 4 C4.96321498 5.06380389 5.86910175 6.1795922 6.75 7.3125 C43.47439764 50.0696529 117.28253575 61.32491848 170 68 C170.69915527 68.08958984 171.39831055 68.17917969 172.11865234 68.27148438 C186.18626089 70.05849695 200.08803818 71.05080549 214.2578125 71.15234375 C215.32392258 71.16276199 216.39003265 71.17318024 217.4884491 71.18391418 C222.81964262 71.23280072 228.14569995 71.24216273 233.47680664 71.18286133 C235.43636436 71.18844709 237.3959193 71.19514988 239.35546875 71.203125 C240.25609039 71.17931259 241.15671204 71.15550018 242.08462524 71.13096619 C248.11731228 71.20258293 248.11731228 71.20258293 250.70620728 73.54138184 C254 77.98339201 254 77.98339201 254 81 C254.66 81 255.32 81 256 81 C256.2475 81.78375 256.495 82.5675 256.75 83.375 C258.2265111 86.47567332 259.00808866 86.59204172 262 88 C263.33333333 89.66666667 264.66666667 91.33333333 266 93 C269.59517362 96.44087432 273.29456778 99.64175157 277.5 102.3125 C278.325 102.869375 279.15 103.42625 280 104 C280 104.66 280 105.32 280 106 C280.845625 106.226875 281.69125 106.45375 282.5625 106.6875 C285.41592922 107.77699116 286.93134156 108.57862215 289.26171875 110.3671875 C292.71845411 112.88767627 296.31843781 114.7653813 300.25 116.4375 C300.93255859 116.72971436 301.61511719 117.02192871 302.31835938 117.32299805 C327.83283092 127.96648984 355.90834462 132.1938294 383 125 C384.30812161 124.68164743 385.61673238 124.36529924 386.92578125 124.05078125 C392.52778301 122.66766443 397.90759087 121.19254743 403.125 118.6875 C405.57385118 117.54317702 406.95472327 117.00315884 409.6875 116.8125 C412.79995178 118.41078605 414.5397972 120.66601856 416.66796875 123.40625 C417.92936016 125.13113625 417.92936016 125.13113625 420 126 C420 126.66 420 127.32 420 128 C420.66 128 421.32 128 422 128 C421.5359375 128.86625 421.5359375 128.86625 421.0625 129.75 C420.01884745 131.96008776 419.28534009 133.57460926 419 136 C420.17939922 138.21765724 420.17939922 138.21765724 421.9375 140.25 C422.50339844 140.95640625 423.06929688 141.6628125 423.65234375 142.390625 C424.09707031 142.92171875 424.54179687 143.4528125 425 144 C401.86568311 156.64484401 375.57618392 164.11470702 350 170 C349.07541992 170.21398437 348.15083984 170.42796875 347.19824219 170.6484375 C313.43661818 178.39663336 278.63013726 182.90342411 244 184 C242.84081055 184.04302246 242.84081055 184.04302246 241.65820312 184.08691406 C212.21938707 185.06162759 181.96304884 182.12048409 153 177 C152.10764648 176.84950195 151.21529297 176.69900391 150.29589844 176.54394531 C130.04699092 173.1199979 110.06492169 168.09615879 90.5 161.875 C89.51676758 161.56272461 88.53353516 161.25044922 87.52050781 160.92871094 C76.89146221 157.4533428 66.69831371 152.93906015 56.5 148.375 C55.200625 147.80265625 55.200625 147.80265625 53.875 147.21875 C53.0396875 146.84492187 52.204375 146.47109375 51.34375 146.0859375 C50.60318359 145.7564209 49.86261719 145.4269043 49.09960938 145.08740234 C46.86274329 143.92891379 45.00237564 142.52133216 43 141 C41.35202764 140.28837557 39.68834592 139.60968047 38 139 C38 138.34 38 137.68 38 137 C37.44570312 136.9071875 36.89140625 136.814375 36.3203125 136.71875 C22.78304744 132.52538843 10.91822004 117.81744934 4 106 C-1.29741834 95.03931952 -1.15328811 83.73749561 -1.1328125 71.77734375 C-1.13376923 70.51902237 -1.13472595 69.26070099 -1.13571167 67.96424866 C-1.13638978 65.30417396 -1.13507373 62.64419216 -1.13037109 59.98413086 C-1.12365689 56.00176892 -1.13029359 52.01947225 -1.13671875 48.03710938 C-1.1404597 32.00151226 -0.7973835 16.01608295 0 0 Z " fill="#39658B" transform="translate(63,423)"/>
<path d="M0 0 C1.04800781 1.07121094 1.04800781 1.07121094 2.1171875 2.1640625 C33.07853433 33.08189374 81.09192876 48.52609571 123 57 C124.40158889 57.31397331 125.8026057 57.63050829 127.203125 57.94921875 C147.94404054 62.57649776 168.83194498 65.32079694 190 67 C190.65716003 67.05220703 191.31432007 67.10441406 191.99139404 67.15820312 C211.00679265 68.65336203 229.92417612 69.30721718 249 69 C246.93822829 73.2820409 244.90932875 77.36281318 242.0625 81.1875 C238.28952301 86.70404969 236.18649501 92.72163576 234 99 C233.7009375 99.83015625 233.401875 100.6603125 233.09375 101.515625 C224.85314264 125.08376205 224.29047742 152.38010123 232.44921875 176.01953125 C233 178 233 178 233 182 C168.40911067 183.04164494 87.35079316 173.67474499 33.0234375 135.375 C30.14699899 133.42035452 27.11329934 131.80322424 24.04296875 130.17578125 C21.86802818 128.92404681 19.91154438 127.62803442 18 126 C18 125.34 18 124.68 18 124 C17.42121094 123.73445313 16.84242187 123.46890625 16.24609375 123.1953125 C8.54574328 119.09738686 2.74961011 112.24883034 0 104 C-0.23369234 101.32393101 -0.41776772 98.66828143 -0.55419922 95.98706055 C-0.59630964 95.18806933 -0.63842007 94.38907812 -0.68180656 93.56587505 C-1.11017121 84.77967233 -1.14519692 76.00176738 -1.1328125 67.20703125 C-1.13348876 65.4783273 -1.13446144 63.74962343 -1.13571167 62.0209198 C-1.13716919 58.43866042 -1.13509483 54.85642632 -1.13037109 51.27416992 C-1.12462704 46.69718106 -1.12799442 42.12025026 -1.13394356 37.54326344 C-1.13756167 33.99071313 -1.13640564 30.43817656 -1.13381577 26.88562584 C-1.13315242 25.19722168 -1.13395404 23.50881625 -1.13629532 21.82041359 C-1.13884776 19.46723751 -1.13494702 17.11415543 -1.12939453 14.76098633 C-1.13141876 14.07572372 -1.13344299 13.39046112 -1.13552856 12.68443298 C-1.11667754 8.35024624 -0.69584193 4.26482163 0 0 Z " fill="#39658B" transform="translate(63,284)"/>
<path d="M0 0 C16.95127419 14.09107468 28.83516341 32.88002193 31 55.25 C32.65181254 80.26316134 26.9824126 102.02349649 10.46875 121.1875 C3.764602 128.28600965 -3.62079398 133.38334085 -12 138.25 C-12.74121094 138.68054688 -13.48242188 139.11109375 -14.24609375 139.5546875 C-33.06413197 149.64835457 -54.65806578 150.40246561 -75 145.25 C-97.07366091 138.3258928 -116.06815204 123.91092535 -127 103.25 C-136.43333949 83.31941055 -138.8390344 59.40159305 -131.74072266 38.23388672 C-128.02111618 28.27161836 -123.01462094 19.26440599 -116 11.25 C-115.47019531 10.57839844 -114.94039063 9.90679687 -114.39453125 9.21484375 C-101.57676864 -6.58662607 -80.89230743 -14.81782124 -61.16796875 -17.43359375 C-39.36007911 -19.6116937 -17.36158464 -13.45323404 0 0 Z " fill="#FEFEFE" transform="translate(469,360.75)"/>
<path d="M0 0 C2.88134415 0.00462157 5.76226499 -0.0022837 8.64355469 -0.02050781 C37.26670212 -0.19922617 65.39988861 1.79716535 93.64770508 6.62817383 C95.00075241 6.85402664 95.00075241 6.85402664 96.38113403 7.08444214 C110.97362225 9.52332083 125.38153376 12.35433045 139.64770508 16.31567383 C140.50686523 16.55108887 141.36602539 16.78650391 142.2512207 17.02905273 C163.84641732 23.01905119 186.31487113 29.9779942 204.78833008 43.03442383 C206.82909018 44.49416122 206.82909018 44.49416122 209.96020508 46.06567383 C222.26454727 53.0190579 233.48783873 64.59289632 237.64770508 78.31567383 C239.90876085 89.4773936 238.28126104 98.52195346 232.64770508 108.31567383 C232.09083008 109.34692383 231.53395508 110.37817383 230.96020508 111.44067383 C230.52708008 112.05942383 230.09395508 112.67817383 229.64770508 113.31567383 C228.98770508 113.31567383 228.32770508 113.31567383 227.64770508 113.31567383 C227.41438477 113.8699707 227.18106445 114.42426758 226.94067383 114.99536133 C216.61126315 133.53212852 190.62074746 143.55815288 172.52270508 152.25317383 C171.35046387 152.81983765 171.35046387 152.81983765 170.15454102 153.39794922 C165.71738608 155.49454798 161.44777021 157.24695704 156.64770508 158.31567383 C155.98770508 157.98567383 155.32770508 157.65567383 154.64770508 157.31567383 C155.43274414 156.6634082 156.2177832 156.01114258 157.02661133 155.33911133 C158.08780986 154.45629956 159.14900773 153.57348701 160.21020508 152.69067383 C160.75725098 152.23644043 161.30429687 151.78220703 161.86791992 151.31420898 C164.87389467 148.81323088 167.84160403 146.27950193 170.77270508 143.69067383 C173.64770508 141.31567383 173.64770508 141.31567383 175.64770508 141.31567383 C175.64770508 140.65567383 175.64770508 139.99567383 175.64770508 139.31567383 C176.30770508 139.31567383 176.96770508 139.31567383 177.64770508 139.31567383 C177.89520508 138.75879883 178.14270508 138.20192383 178.39770508 137.62817383 C179.87695326 134.89156469 181.58237947 132.63916513 183.64770508 130.31567383 C184.30770508 130.31567383 184.96770508 130.31567383 185.64770508 130.31567383 C185.93645508 129.55254883 186.22520508 128.78942383 186.52270508 128.00317383 C187.64770508 125.31567383 187.64770508 125.31567383 189.64770508 122.31567383 C190.30770508 122.31567383 190.96770508 122.31567383 191.64770508 122.31567383 C191.7637207 121.73817383 191.87973633 121.16067383 191.99926758 120.56567383 C192.6953098 118.1504912 193.69342648 116.44251959 195.02270508 114.31567383 C199.98637277 105.56810873 202.42490496 95.11084983 199.85083008 85.26879883 C198.24240187 80.1960637 196.38962316 75.87244313 193.64770508 71.31567383 C193.64770508 70.65567383 193.64770508 69.99567383 193.64770508 69.31567383 C192.98770508 69.31567383 192.32770508 69.31567383 191.64770508 69.31567383 C190.02661133 67.63598633 190.02661133 67.63598633 188.21020508 65.44067383 C186.06369624 62.85373661 184.47993946 61.20383008 181.64770508 59.31567383 C181.64770508 58.65567383 181.64770508 57.99567383 181.64770508 57.31567383 C180.56489258 56.94442383 180.56489258 56.94442383 179.46020508 56.56567383 C176.64770508 55.31567383 176.64770508 55.31567383 174.45239258 53.48364258 C171.13744211 50.9212505 167.72152057 49.1884706 163.96020508 47.37817383 C162.51734941 46.67404857 161.07464048 45.96962255 159.63208008 45.26489258 C158.59470703 44.76094971 158.59470703 44.76094971 157.53637695 44.24682617 C155.23369225 43.11155737 152.9758999 41.89774228 150.71020508 40.69067383 C123.05196217 27.10970953 89.94373209 22.42311964 59.77270508 18.12817383 C58.60843994 17.96091797 57.4441748 17.79366211 56.24462891 17.62133789 C1.26378852 10.10404771 -61.02460577 12.70707131 -114.35229492 29.31567383 C-115.21338867 29.58041504 -116.07448242 29.84515625 -116.96166992 30.11791992 C-128.60028221 33.76115078 -139.72095051 38.18523809 -150.72729492 43.44067383 C-152.26861084 44.1765271 -152.26861084 44.1765271 -153.84106445 44.92724609 C-159.39797255 47.65457695 -164.55303023 50.61612935 -169.59692383 54.2097168 C-171.35229492 55.31567383 -171.35229492 55.31567383 -173.35229492 55.31567383 C-173.35229492 55.97567383 -173.35229492 56.63567383 -173.35229492 57.31567383 C-174.85620117 58.76098633 -174.85620117 58.76098633 -176.91479492 60.44067383 C-185.00186564 67.37040757 -191.37932802 74.87910629 -194.16479492 85.37817383 C-194.25760742 86.83223633 -194.25760742 86.83223633 -194.35229492 88.31567383 C-194.44510742 89.25926758 -194.44510742 89.25926758 -194.53979492 90.22192383 C-195.42501793 105.49202073 -186.47308924 118.95081395 -177.00463867 130.07348633 C-173.86101752 133.58972368 -170.68231621 137.03815326 -167.28979492 140.31567383 C-165.35229492 142.31567383 -165.35229492 142.31567383 -165.35229492 144.31567383 C-164.51891602 144.67145508 -164.51891602 144.67145508 -163.66870117 145.03442383 C-160.80858371 146.61641123 -158.68280823 148.59230098 -156.28979492 150.81567383 C-153.69309158 153.22104114 -151.30123186 155.34971587 -148.35229492 157.31567383 C-148.35229492 157.97567383 -148.35229492 158.63567383 -148.35229492 159.31567383 C-157.96459328 157.25943475 -167.71424609 152.94713831 -176.35229492 148.31567383 C-177.93492351 147.54339459 -179.51831526 146.77267814 -181.10229492 146.00317383 C-189.07301706 142.01781276 -197.20863047 137.67342217 -204.35229492 132.31567383 C-204.35229492 131.65567383 -204.35229492 130.99567383 -204.35229492 130.31567383 C-205.04709961 130.10942383 -205.7419043 129.90317383 -206.45776367 129.69067383 C-210.28072433 127.87463854 -212.74223212 125.32701436 -215.66479492 122.31567383 C-216.21458008 121.76911133 -216.76436523 121.22254883 -217.33081055 120.65942383 C-221.35229492 116.58298749 -221.35229492 116.58298749 -221.35229492 114.31567383 C-222.01229492 114.31567383 -222.67229492 114.31567383 -223.35229492 114.31567383 C-230.51564322 104.578309 -234.47573536 94.03471598 -232.78979492 81.94067383 C-230.32565685 70.13265649 -222.85285966 60.44109738 -213.35229492 53.31567383 C-212.69229492 53.31567383 -212.03229492 53.31567383 -211.35229492 53.31567383 C-211.02229492 52.32567383 -210.69229492 51.33567383 -210.35229492 50.31567383 C-208.1960539 48.63195165 -206.07477674 47.11782102 -203.78979492 45.62817383 C-203.12085205 45.18828125 -202.45190918 44.74838867 -201.76269531 44.29516602 C-187.78282353 35.29520666 -172.09268605 28.26689235 -156.26635742 23.27270508 C-153.99440043 22.52655298 -151.77923332 21.72789197 -149.54760742 20.87426758 C-125.03347549 11.62316282 -98.24231701 7.41808473 -72.35229492 4.00317383 C-71.24837402 3.85605957 -70.14445313 3.70894531 -69.00708008 3.55737305 C-46.06500458 0.74431202 -23.08635251 -0.04005645 0 0 Z " fill="#39658B" transform="translate(295.352294921875,4.684326171875)"/>
<path d="M0 0 C0.99386719 0.86109375 1.98773438 1.7221875 3.01171875 2.609375 C3.76839844 3.26421875 4.52507812 3.9190625 5.3046875 4.59375 C23.29613136 21.40012869 34.30143335 46.96364427 35.25 71.40234375 C35.64686694 90.56229641 32.79914158 107.50103391 24.01171875 124.609375 C23.48835937 125.65351563 22.965 126.69765625 22.42578125 127.7734375 C9.4402626 151.780811 -14.17749432 169.22225566 -40.07910156 176.98608398 C-68.79478235 185.19397138 -97.20100774 180.28492388 -123.05859375 165.9453125 C-128.14627304 163.0064667 -132.5937829 159.49521225 -136.98828125 155.609375 C-137.59542969 155.13242187 -138.20257813 154.65546875 -138.828125 154.1640625 C-144.40541405 149.73764262 -148.65967937 144.22423402 -152.98828125 138.609375 C-153.60960937 137.80371094 -154.2309375 136.99804688 -154.87109375 136.16796875 C-171.55950783 113.4552617 -176.28336617 86.07540734 -172.37109375 58.41796875 C-168.71427583 38.12719485 -158.08686656 20.35231978 -143.98828125 5.609375 C-143.43785156 4.99578125 -142.88742187 4.3821875 -142.3203125 3.75 C-105.43270602 -35.96110229 -39.54539658 -33.12670136 0 0 Z M-131.4375 21.2109375 C-148.83438593 41.70913586 -153.66427273 64.37217842 -151.98828125 90.609375 C-149.80060144 109.447112 -138.59057323 128.49257953 -123.98828125 140.609375 C-105.57951231 154.79894451 -84.42356732 162.19907712 -60.98828125 160.609375 C-39.98898142 157.87968096 -22.86752393 149.48861768 -7.98828125 134.609375 C-7.28058594 133.90167969 -6.57289063 133.19398438 -5.84375 132.46484375 C9.79617521 115.86798239 14.70586349 94.97400597 14.25390625 72.83203125 C13.46025317 51.11658293 3.76418789 31.15496456 -11.95703125 16.33203125 C-28.05413922 1.65199325 -49.85970911 -5.8741605 -71.53125 -5.6015625 C-94.28516563 -4.21318799 -115.64224943 4.43320723 -131.4375 21.2109375 Z " fill="#C1D253" transform="translate(485.98828125,348.390625)"/>
<path d="M0 0 C1.93166016 0.01740234 1.93166016 0.01740234 3.90234375 0.03515625 C5.83787109 0.04869141 5.83787109 0.04869141 7.8125 0.0625 C8.81152344 0.07410156 9.81054688 0.08570313 10.83984375 0.09765625 C11.02160156 0.92910156 11.20335937 1.76054688 11.390625 2.6171875 C11.64199219 3.70386719 11.89335937 4.79054688 12.15234375 5.91015625 C12.39597656 6.98910156 12.63960938 8.06804688 12.890625 9.1796875 C13.83268616 12.07565328 14.47357226 13.26668525 16.83984375 15.09765625 C19.81447712 16.58497293 21.51263218 16.52896145 24.83984375 16.09765625 C27.04089466 14.67050982 29.01173109 13.11095935 31.0078125 11.41015625 C32.83984375 10.09765625 32.83984375 10.09765625 35.83984375 10.09765625 C38.1015625 11.41015625 38.1015625 11.41015625 40.52734375 13.09765625 C41.33558594 13.65453125 42.14382813 14.21140625 42.9765625 14.78515625 C43.89888672 15.43484375 43.89888672 15.43484375 44.83984375 16.09765625 C44.38619593 19.273191 43.84434211 22.08566064 42.71484375 25.09765625 C41.70151984 28.57190966 41.91365951 30.62446534 42.83984375 34.09765625 C44.45312515 37.13582566 44.45312515 37.13582566 46.57421875 37.78125 C49.43567981 38.18086784 52.20126175 38.19155388 55.08984375 38.16015625 C56.1675 38.15113281 57.24515625 38.14210937 58.35546875 38.1328125 C59.1753125 38.12121094 59.99515625 38.10960937 60.83984375 38.09765625 C61.34946221 39.49000668 61.84709284 40.88674743 62.33984375 42.28515625 C62.61828125 43.06246094 62.89671875 43.83976562 63.18359375 44.640625 C63.87516055 47.22988404 63.95355292 49.43022863 63.83984375 52.09765625 C63.22496094 52.4121875 62.61007812 52.72671875 61.9765625 53.05078125 C61.16832031 53.47875 60.36007812 53.90671875 59.52734375 54.34765625 C58.32658203 54.97414063 58.32658203 54.97414063 57.1015625 55.61328125 C54.66459253 57.21267432 53.34643773 58.61394221 51.83984375 61.09765625 C51.55434891 64.52359438 51.47057897 67.9027051 52.83984375 71.09765625 C54.53753609 72.19934609 54.53753609 72.19934609 56.83984375 73.09765625 C58.09680135 73.7935684 59.34644689 74.50279491 60.58984375 75.22265625 C61.66234375 75.84140625 62.73484375 76.46015625 63.83984375 77.09765625 C63.55375068 78.49464261 63.2606747 79.89019955 62.96484375 81.28515625 C62.80242187 82.06246094 62.64 82.83976562 62.47265625 83.640625 C61.80364455 86.23820745 60.88331887 88.62926763 59.83984375 91.09765625 C58.88722656 90.96746094 57.93460937 90.83726562 56.953125 90.703125 C49.36799546 89.65889932 49.36799546 89.65889932 42.40234375 92.09765625 C40.36226559 96.01460632 40.72612534 97.86552629 41.83984375 102.09765625 C42.21109375 103.12890625 42.58234375 104.16015625 42.96484375 105.22265625 C43.96070018 108.49475595 43.90967307 109.87821639 42.83984375 113.09765625 C40.7734375 114.8984375 40.7734375 114.8984375 38.27734375 116.41015625 C37.45105469 116.92191406 36.62476563 117.43367188 35.7734375 117.9609375 C35.13535156 118.33605469 34.49726563 118.71117187 33.83984375 119.09765625 C33.17984375 118.76765625 32.51984375 118.43765625 31.83984375 118.09765625 C31.83984375 117.43765625 31.83984375 116.77765625 31.83984375 116.09765625 C29.85984375 115.10765625 29.85984375 115.10765625 27.83984375 114.09765625 C27.83984375 113.43765625 27.83984375 112.77765625 27.83984375 112.09765625 C22.17683804 110.05516113 22.17683804 110.05516113 16.52734375 111.41015625 C13.48524838 114.45225162 12.58594216 116.70658838 11.48046875 120.78125 C10.78935232 123.28022587 9.80277908 125.69031792 8.83984375 128.09765625 C4.87984375 128.09765625 0.91984375 128.09765625 -3.16015625 128.09765625 C-3.42828125 127.08703125 -3.69640625 126.07640625 -3.97265625 125.03515625 C-6.03386515 117.00482686 -6.03386515 117.00482686 -11.16015625 111.09765625 C-15.24530355 110.41189402 -15.24530355 110.41189402 -19.16015625 111.09765625 C-21.21851882 112.80327523 -22.84684332 114.58132244 -24.51953125 116.6640625 C-26.16015625 118.09765625 -26.16015625 118.09765625 -28.06640625 117.97265625 C-30.4551535 116.97437382 -32.66399379 115.82339648 -34.91015625 114.53515625 C-35.709375 114.08011719 -36.50859375 113.62507813 -37.33203125 113.15625 C-37.9353125 112.80691406 -38.53859375 112.45757812 -39.16015625 112.09765625 C-38.95519531 111.44539063 -38.75023437 110.793125 -38.5390625 110.12109375 C-37.71704684 107.45445921 -36.93683361 104.77779676 -36.16015625 102.09765625 C-35.83015625 101.02515625 -35.50015625 99.95265625 -35.16015625 98.84765625 C-35.16015625 95.6392254 -35.84109919 93.62904793 -38.015625 91.22265625 C-42.98719686 88.61461855 -49.68998827 89.72609767 -55.16015625 90.09765625 C-55.83543848 88.51797818 -56.50005319 86.93373722 -57.16015625 85.34765625 C-57.53140625 84.4659375 -57.90265625 83.58421875 -58.28515625 82.67578125 C-59.16015625 80.09765625 -59.16015625 80.09765625 -59.16015625 76.09765625 C-58.47308594 75.783125 -57.78601563 75.46859375 -57.078125 75.14453125 C-56.17707031 74.7165625 -55.27601563 74.28859375 -54.34765625 73.84765625 C-53.45433594 73.43 -52.56101563 73.01234375 -51.640625 72.58203125 C-49.00842546 71.00685672 -47.71818161 69.71982311 -46.16015625 67.09765625 C-45.72060738 62.96589687 -46.05158156 59.71235572 -48.16015625 56.09765625 C-50.48870088 54.89927416 -50.48870088 54.89927416 -53.16015625 54.09765625 C-54.84309545 53.12529138 -56.51459059 52.13201181 -58.16015625 51.09765625 C-57.67440179 46.32107075 -57.07154524 42.53425427 -55.16015625 38.09765625 C-53.73123047 38.05898437 -53.73123047 38.05898437 -52.2734375 38.01953125 C-51.01917969 37.9628125 -49.76492187 37.90609375 -48.47265625 37.84765625 C-47.23128906 37.80125 -45.98992187 37.75484375 -44.7109375 37.70703125 C-40.67241196 37.01395096 -38.93875321 36.08033096 -36.16015625 33.09765625 C-34.62763709 27.55235668 -36.49341219 22.9673628 -39.16015625 18.09765625 C-37.97568248 14.54423493 -36.93174901 13.88126116 -33.91015625 11.78515625 C-33.141875 11.23214844 -32.37359375 10.67914063 -31.58203125 10.109375 C-29.16015625 9.09765625 -29.16015625 9.09765625 -26.5078125 9.796875 C-24.16015625 11.09765625 -24.16015625 11.09765625 -21.84765625 13.22265625 C-17.95486413 15.93855773 -15.85568314 15.69391363 -11.16015625 15.09765625 C-6.71929647 12.45714503 -6.0133003 7.97306065 -4.7734375 3.2421875 C-3.81099756 -0.12328718 -3.68832257 0.11397783 0 0 Z " fill="#52A6AE" transform="translate(224.16015625,46.90234375)"/>
<path d="M0 0 C1.4140625 1.8125 1.4140625 1.8125 2.625 4 C4.23227894 7.09166609 4.23227894 7.09166609 7 9 C12.88227138 9.66518971 12.88227138 9.66518971 17.8125 6.8125 C19.77679555 4.28697716 21.47469433 1.8097736 23 -1 C29.02770138 -0.52412884 33.76678289 2.19722957 39 5 C38.76603516 5.97839844 38.76603516 5.97839844 38.52734375 6.9765625 C36.86005109 14.00399012 36.86005109 14.00399012 38 21 C40.1788032 23.5873288 41.75514739 24.83988309 45.15625 25.27734375 C49.24847047 25.33872706 52.99932996 24.86634228 57 24 C58.00696568 26.10084209 59.0053589 28.20579489 60 30.3125 C60.556875 31.48425781 61.11375 32.65601563 61.6875 33.86328125 C63 37 63 37 63 40 C62.45730469 40.21914062 61.91460937 40.43828125 61.35546875 40.6640625 C57.59107343 42.33260529 55.39652075 43.43000142 53 46.875 C51.44501138 51.73433945 51.25104063 54.50208126 53.5625 59.125 C56.47551785 62.56086721 58.99810158 63.99905079 63 66 C62.39644592 69.85025879 61.23227397 72.86101159 59.4375 76.3125 C58.98246094 77.19550781 58.52742188 78.07851562 58.05859375 78.98828125 C57.70925781 79.65214844 57.35992187 80.31601563 57 81 C53.42267353 80.48895336 49.86565544 79.97495271 46.3125 79.3125 C42.93180404 78.99356642 41.64701 78.94121444 39 81 C36.75349651 83.78138527 37.01946895 85.24141502 37.3125 88.875 C37.52718586 90.25233523 37.75816715 91.62717108 38 93 C38.33 94.98 38.66 96.96 39 99 C34.38 100.98 29.76 102.96 25 105 C22.15321219 102.15321219 20.20561492 99.34399682 18 96 C15.62959692 93.62959692 14.93697247 93.65534207 11.6875 93.5625 C8.01895732 93.64493916 7.17819495 93.86441689 4.125 96.1875 C2.21217348 98.71918216 0.51323858 101.21245524 -1 104 C-6.85272256 103.54979057 -11.08220119 100.96160773 -16 98 C-15.7834375 97.40832031 -15.566875 96.81664062 -15.34375 96.20703125 C-13.40502753 90.70500868 -12.10018047 86.69945858 -14 81 C-20.31076718 78.05305861 -26.53962322 79.24666184 -33 81 C-34.19725883 78.71296692 -35.38297018 76.42115138 -36.5625 74.125 C-36.90474609 73.47402344 -37.24699219 72.82304687 -37.59960938 72.15234375 C-38.46082891 70.46470143 -39.23686703 68.73420407 -40 67 C-38.50321499 64.00642998 -35.9714288 63.44823416 -33.0078125 62.09765625 C-30.88839303 60.93898529 -29.53134213 59.86344042 -28 58 C-26.98848936 54.17070971 -26.80411454 51.69959093 -27.875 47.875 C-30.84554976 43.85602092 -34.54537252 42.11057822 -39 40 C-37.94513949 33.87903309 -36.34782974 29.24493326 -33 24 C-32.38125 24.165 -31.7625 24.33 -31.125 24.5 C-22.92452421 25.89993538 -22.92452421 25.89993538 -15.4375 23.25 C-13.99516752 20.99243611 -13.38806464 19.62542494 -13 17 C-13.55818002 14.74180438 -13.55818002 14.74180438 -14.5 12.5 C-15.44141092 10.13024147 -16.01579674 8.44812855 -15.92578125 5.89453125 C-14.52467005 3.02727838 -12.56226763 2.44782859 -9.6875 1.1875 C-8.72199219 0.74792969 -7.75648438 0.30835938 -6.76171875 -0.14453125 C-3.8643533 -1.04201786 -2.70506412 -1.32624094 0 0 Z " fill="#95D2ED" transform="translate(362,61)"/>
<path d="M0 0 C3.30282976 0.33294655 4.9816589 1.59469316 7.25 3.9375 C8.03117188 4.72447266 8.03117188 4.72447266 8.828125 5.52734375 C10 7 10 7 10 9 C10.81210937 9.33451172 10.81210937 9.33451172 11.640625 9.67578125 C14.74975465 11.42080601 17.17854539 13.75312436 19.75 16.1875 C20.82617919 17.1907951 21.90300198 18.1934003 22.98046875 19.1953125 C23.76043213 19.92282715 23.76043213 19.92282715 24.55615234 20.66503906 C26.36096683 22.33374478 28.20391047 23.95403121 30.0625 25.5625 C30.67867187 26.10390625 31.29484375 26.6453125 31.9296875 27.203125 C33.52321254 28.58618447 35.13647543 29.94652628 36.7578125 31.296875 C44.38698292 37.84778933 49.44808987 43.86507673 51 54 C51.37619884 61.75455028 49.31311656 67.84463215 44.4375 73.875 C38.52792352 79.95680457 32.33282747 82.14797229 23.9375 82.5 C14.09752349 82.10942475 7.8832064 77.68003336 1 71 C-1.35062938 68.35189396 -3.49680304 65.57858837 -5.625 62.75 C-6.2125708 61.98220215 -6.8001416 61.2144043 -7.40551758 60.42333984 C-13.57209702 52.33047116 -19.60118382 44.13288092 -25.59643555 35.91259766 C-27.00105429 33.94205865 -27.00105429 33.94205865 -28.74145508 32.00537109 C-30 30 -30 30 -29.91235352 27.99316406 C-28.77327689 25.5046916 -27.36076073 24.02153017 -25.40234375 22.109375 C-24.68369141 21.40039062 -23.96503906 20.69140625 -23.22460938 19.9609375 C-22.46986328 19.23132813 -21.71511719 18.50171875 -20.9375 17.75 C-20.17888672 17.00492188 -19.42027344 16.25984375 -18.63867188 15.4921875 C-16.76567793 13.65453306 -14.88604389 11.82424276 -13 10 C-8.43937044 12.83516882 -4.83447405 15.94788147 -1.125 19.8125 C2.72815808 23.74542749 6.61901742 27.52033534 10.80859375 31.09765625 C15.99242077 35.5976986 20.99150768 40.30676139 26 45 C26.82757812 45.77214844 27.65515625 46.54429687 28.5078125 47.33984375 C35.10556165 53.68196055 37.41430237 58.91158845 38 68 C40.92665827 61.67841813 41.73899977 56.82475382 40 50 C36.12112981 40.47421646 26.75575136 33.38323593 19.140625 26.8515625 C16.49596178 24.56402533 13.90329756 22.22334324 11.3125 19.875 C10.42175781 19.06804688 9.53101563 18.26109375 8.61328125 17.4296875 C4.05448618 13.19116652 -0.0772511 8.81937722 -4 4 C-2.25 1.9375 -2.25 1.9375 0 0 Z " fill="#C1D254" transform="translate(531,535)"/>
<path d="M0 0 C0 8.25 0 16.5 0 25 C-11.25801217 30.62900609 -11.25801217 30.62900609 -15.8125 31.87890625 C-17.31586914 32.297771 -17.31586914 32.297771 -18.84960938 32.72509766 C-20.40905273 33.13961182 -20.40905273 33.13961182 -22 33.5625 C-23.10666016 33.8620459 -24.21332031 34.1615918 -25.35351562 34.47021484 C-28.56497086 35.32992682 -31.78087038 36.1695442 -35 37 C-36.175625 37.30768311 -36.175625 37.30768311 -37.375 37.62158203 C-48.01104149 40.35748543 -58.84452056 42.01170641 -69.6875 43.6875 C-70.38311035 43.79636536 -71.0787207 43.90523071 -71.79541016 44.01739502 C-81.5327126 45.52886118 -91.15827894 46.46015876 -101 47 C-101.33 40.07 -101.66 33.14 -102 26 C-90.80675204 23.76135041 -90.80675204 23.76135041 -86.625 23.0703125 C-68.43325592 20.0156148 -50.71675957 16.13614371 -33 11 C-31.98679687 10.70996094 -30.97359375 10.41992188 -29.9296875 10.12109375 C-21.5567118 7.67577516 -13.63563315 4.46028123 -5.63671875 0.98828125 C-3 0 -3 0 0 0 Z " fill="#FEFEFE" transform="translate(480,197)"/>
<path d="M0 0 C0 0.66 0 1.32 0 2 C0.59425781 2.23847656 1.18851563 2.47695312 1.80078125 2.72265625 C4.46660288 4.27101091 5.53546457 5.85115147 7.1875 8.4375 C7.69667969 9.21996094 8.20585937 10.00242187 8.73046875 10.80859375 C12.00001404 16.45233193 11.62666466 22.67572902 11 29 C8.93372406 35.80110557 5.08594873 41.22885796 -1 45 C-1.66 45 -2.32 45 -3 45 C-3 45.66 -3 46.32 -3 47 C-10.93312439 49.8847725 -19.40646487 50.56731539 -27.25 47.0625 C-33.6762244 43.40369804 -38.58260291 38.30725989 -41.5 31.5 C-42.74478465 22.78650748 -42.55218594 14.96826007 -37.265625 7.57421875 C-32.62480085 2.0789793 -28.28796213 -1.70363935 -21.3125 -3.8125 C-13.81074893 -4.23712742 -6.46010352 -4.12728836 0 0 Z " fill="#FEFEFE" transform="translate(242,87)"/>
<path d="M0 0 C5.18667405 6.75839345 8.18026423 12.99037556 7.0625 21.6875 C5.17877116 27.54365184 2.5225375 33.48697406 -2.8046875 36.875 C-9.24977879 40.17782258 -16.18065535 41.13021718 -23.19140625 39.00390625 C-25.125 38.1875 -25.125 38.1875 -27.9375 36.6875 C-27.9375 36.0275 -27.9375 35.3675 -27.9375 34.6875 C-28.535625 34.419375 -29.13375 34.15125 -29.75 33.875 C-33.06932289 32.07308186 -34.5307989 30.61387473 -36.0625 27.125 C-38.12154844 19.03588113 -38.71404076 12.3434445 -34.9375 4.6875 C-30.61267411 -1.86152206 -25.50631658 -4.37641696 -18.125 -6.3125 C-11.5264276 -6.86020759 -5.08568393 -4.00362352 0 0 Z " fill="#FEFEFE" transform="translate(123.9375,496.3125)"/>
<path d="M0 0 C1.97530565 1.21841283 3.73742904 2.5022708 5.52734375 3.9765625 C6.55408203 4.6571875 6.55408203 4.6571875 7.6015625 5.3515625 C11.53784807 8.67305296 12.98969672 14.11090381 13.91796875 19.05859375 C14.28141069 25.43180779 12.05981155 32.06002375 7.87890625 36.875 C1.92519187 42.20474432 -4.47978362 44.26202224 -12.47265625 43.9765625 C-18.88638305 42.2497899 -25.10674838 38.69125898 -28.7265625 33.0078125 C-32.23309385 26.06805708 -32.62386687 19.61196445 -30.28515625 12.2265625 C-24.02520499 1.0018223 -12.87185762 -5.3276883 0 0 Z " fill="#FEFEFE" transform="translate(117.47265625,351.0234375)"/>
<path d="M0 0 C5.06317237 4.53342395 8.02200686 10.15535806 9.00390625 16.86328125 C9.30234663 23.19021736 6.9213749 28.23680066 3.94140625 33.73828125 C3.28140625 33.73828125 2.62140625 33.73828125 1.94140625 33.73828125 C1.94140625 34.39828125 1.94140625 35.05828125 1.94140625 35.73828125 C-0.03859375 36.23328125 -0.03859375 36.23328125 -2.05859375 36.73828125 C-2.05859375 37.39828125 -2.05859375 38.05828125 -2.05859375 38.73828125 C-8.4924952 41.5205089 -16.30842422 42.10226886 -22.93359375 39.55078125 C-29.34951209 35.82954861 -33.22017458 30.64073238 -35.80859375 23.73828125 C-36.70164349 16.59388331 -35.65091403 10.9749484 -32.05859375 4.73828125 C-23.92904269 -4.47409936 -10.72138464 -7.0093767 0 0 Z " fill="#FEFEFE" transform="translate(122.05859375,213.26171875)"/>
<path d="M0 0 C5.05552316 5.05552316 6.6464009 9.72908858 6.9375 16.8125 C6.75735527 23.08623588 5.53726927 26.70033916 1.07421875 31.2734375 C-4.4599452 36.22129468 -9.50126489 37.28033952 -16.71484375 37.125 C-22.52640965 36.47293089 -26.18888306 34.09448101 -30.3125 30.0625 C-34.31611973 24.11426498 -36.24356081 19.18818309 -35.06640625 11.9765625 C-33.32304326 5.31571357 -29.24592159 0.52144529 -23.5 -3.1875 C-15.75442094 -6.9125984 -6.54904674 -5.34517786 0 0 Z " fill="#FEFEFE" transform="translate(388.5,96.1875)"/>
<path d="M0 0 C1.83510968 1.83510968 1.23478884 4.35146764 1.328125 6.796875 C0.87700158 9.82584653 -0.15727251 11.55749825 -2 14 C-4.49609375 15.58984375 -4.49609375 15.58984375 -7.4375 16.9375 C-8.50484375 17.44410156 -9.5721875 17.95070313 -10.671875 18.47265625 C-12.82715275 19.46175672 -14.98334603 20.44886566 -17.140625 21.43359375 C-27.43939823 26.3057057 -34.2777201 32.2389075 -40.4921875 41.80078125 C-43.1211185 45.63520652 -44.21951988 46.81117417 -48.875 47.9375 C-52.09295908 48.22196047 -52.94812162 48.02759488 -55.9375 46.4375 C-58.53350865 43.36948977 -59.07609917 42.03325579 -59 38 C-55.91427695 26.29710963 -45.8094048 16.47119731 -36 10 C-24.42704669 3.3811763 -13.59273503 -1.16445177 0 0 Z " fill="#C1D255" transform="translate(418,363)"/>
<path d="M0 0 C0 27.72 0 55.44 0 84 C-7.23394667 76.76605333 -10.77046364 69.10411544 -11.02392578 58.90145874 C-11.01603027 57.70421173 -11.00813477 56.50696472 -11 55.2734375 C-11.01144043 54.00456696 -11.02288086 52.73569641 -11.03466797 51.42837524 C-11.04811903 48.76266597 -11.04724691 46.10166793 -11.02246094 43.43652344 C-10.99370033 40.04817693 -11.03764906 36.66520307 -11.10186768 33.27750206 C-11.15219806 30.00527343 -11.13498884 26.73345216 -11.125 23.4609375 C-11.16173828 21.65899429 -11.16173828 21.65899429 -11.19921875 19.82064819 C-11.04061281 11.55717662 -8.89176044 7.529438 -3.02685547 1.71426392 C-1 0 -1 0 0 0 Z " fill="#38648B" transform="translate(533,287)"/>
<path d="M0 0 C0 4.95 0 9.9 0 15 C-20.23519085 21.85341805 -41.37412699 23.22826977 -62.625 23.3125 C-64.42106689 23.32083862 -64.42106689 23.32083862 -66.25341797 23.3293457 C-74.61295968 23.25802688 -74.61295968 23.25802688 -78 21 C-77.13556274 20.81993408 -77.13556274 20.81993408 -76.25366211 20.63623047 C-53.45371829 15.8573011 -30.55890432 10.72434989 -8.84375 2.1484375 C-3.30198598 0 -3.30198598 0 0 0 Z " fill="#FEFEFE" transform="translate(480,243)"/>
<path d="M0 0 C0.13914105 11.87426365 0.24569304 23.74833274 0.31087303 35.62324619 C0.34215954 41.13755186 0.38458428 46.65129898 0.45263672 52.1652832 C0.51792355 57.48861604 0.55372621 62.81141232 0.56926346 68.13511467 C0.58033298 70.16411725 0.60194975 72.19309111 0.63438034 74.2218647 C0.67806766 77.06855383 0.68392899 79.91303828 0.68115234 82.76000977 C0.702724 83.59511078 0.72429565 84.43021179 0.746521 85.2906189 C0.687422 90.90621455 -0.74305522 93.72768749 -4.61379051 97.79359341 C-6 99 -6 99 -7 99 C-7.11588995 86.97803405 -7.20471377 74.95620115 -7.25906086 62.93379021 C-7.28514589 57.35116713 -7.32052468 51.76892644 -7.37719727 46.18652344 C-7.43155499 40.79837413 -7.46142877 35.41059245 -7.47438622 30.02219009 C-7.48361926 27.96726825 -7.50164945 25.91236635 -7.52865028 23.85760117 C-7.5649902 20.97738035 -7.56994323 18.09867519 -7.56762695 15.21826172 C-7.58560333 14.37021469 -7.60357971 13.52216766 -7.62210083 12.64842224 C-7.58554389 8.44260671 -7.25246253 5.77641073 -4.58952332 2.42385864 C-2 0 -2 0 0 0 Z " fill="#FEFEFE" transform="translate(523,162)"/>
<path d="M0 0 C0 13.86 0 27.72 0 42 C-5 37 -5 37 -7.17578125 34.75390625 C-11.38703216 30.43487195 -15.58278833 26.60125009 -20.56640625 23.19140625 C-21.03949219 22.79824219 -21.51257813 22.40507812 -22 22 C-22 21.34 -22 20.68 -22 20 C-22.639375 19.731875 -23.27875 19.46375 -23.9375 19.1875 C-26 18 -26 18 -27 15 C-26.39003174 14.68772461 -25.78006348 14.37544922 -25.15161133 14.05371094 C-22.36888713 12.62493739 -19.59069261 11.18756379 -16.8125 9.75 C-15.85279297 9.25886719 -14.89308594 8.76773437 -13.90429688 8.26171875 C-10.55270244 6.52213686 -3.17895663 0 0 0 Z " fill="#37648B" transform="translate(515,303)"/>
<path d="M0 0 C0.33 0 0.66 0 1 0 C1.11798604 3.77056169 1.18783864 7.54063765 1.25 11.3125 C1.30027344 12.8912793 1.30027344 12.8912793 1.3515625 14.50195312 C1.49079969 25.81497481 -1.63102899 34.42743039 -9 43 C-13.13621084 39.6189962 -16.81316569 36.33409466 -20 32 C-18.58968213 27.9093398 -16.62050103 25.00359389 -13.9375 21.625 C-9.78016768 16.22114178 -6.23716695 10.62775604 -2.83178711 4.72509766 C-1.91073036 3.13658136 -0.95853892 1.56618412 0 0 Z " fill="#36638A" transform="translate(532,480)"/>
<path d="M0 0 C2.9375 2.0625 2.9375 2.0625 5 5 C5 8.54595558 4.72088444 10.86176141 2.8125 13.875 C0.15800608 15.52261692 -1.88327487 15.87533099 -5 16 C-9.56521739 13.86956522 -9.56521739 13.86956522 -11 11 C-11.375 7.625 -11.375 7.625 -11 4 C-7.70503051 0.22047618 -4.94820177 -0.92778783 0 0 Z " fill="#C0D15A" transform="translate(364,426)"/>
<path d="M0 0 C5.18010355 2.50961538 5.18010355 2.50961538 7 5 C6.74297729 7.79220127 6.11238361 8.88310204 4.15234375 10.921875 C3.05599609 11.82679688 3.05599609 11.82679688 1.9375 12.75 C0.83728516 13.67039062 0.83728516 13.67039062 -0.28515625 14.609375 C-0.85105469 15.06828125 -1.41695313 15.5271875 -2 16 C-5.32302186 14.43622501 -7.56184007 12.78646849 -10 10 C-10 9.34 -10 8.68 -10 8 C-8.38542921 6.56418526 -6.70780925 5.19855217 -5 3.875 C-4.071875 3.15054688 -3.14375 2.42609375 -2.1875 1.6796875 C-1.465625 1.12539063 -0.74375 0.57109375 0 0 Z " fill="#C1D15C" transform="translate(502,527)"/>
</svg>
