<svg width="1565" height="1259" xmlns="http://www.w3.org/2000/svg" xmlns:xlink="http://www.w3.org/1999/xlink" xml:space="preserve" overflow="hidden"><g transform="translate(-857 -332)"><path d="M1365.5 641.667C1365.5 625.006 1379.01 611.5 1395.67 611.5L1966.33 611.5C1982.99 611.5 1996.5 625.006 1996.5 641.667L1996.5 762.333C1996.5 778.994 1982.99 792.5 1966.33 792.5L1395.67 792.5C1379.01 792.5 1365.5 778.994 1365.5 762.333Z" stroke="#315363" stroke-width="4.58333" stroke-miterlimit="8" fill="#7CC8EC" fill-rule="evenodd"/><text fill="#FFFFFF" font-family="Open Sans,Open Sans_MSFontService,sans-serif" font-weight="400" font-size="62" transform="matrix(1 0 0 1 1436.99 722)">Plan Enumerator</text><path d="M1365.5 1022.5C1365.5 1005.93 1378.93 992.5 1395.5 992.5L1966.5 992.5C1983.07 992.5 1996.5 1005.93 1996.5 1022.5L1996.5 1142.5C1996.5 1159.07 1983.07 1172.5 1966.5 1172.5L1395.5 1172.5C1378.93 1172.5 1365.5 1159.07 1365.5 1142.5Z" stroke="#345452" stroke-width="4.58333" stroke-miterlimit="8" fill="#84CBC5" fill-rule="evenodd"/><text fill="#FFFFFF" font-family="Open Sans,Open Sans_MSFontService,sans-serif" font-weight="400" font-size="62" transform="matrix(1 0 0 1 1518.35 1103)">Cost Model</text><path d="M1018.5 1419.5C1018.5 1402.93 1031.93 1389.5 1048.5 1389.5L1619.5 1389.5C1636.07 1389.5 1649.5 1402.93 1649.5 1419.5L1649.5 1539.5C1649.5 1556.07 1636.07 1569.5 1619.5 1569.5L1048.5 1569.5C1031.93 1569.5 1018.5 1556.07 1018.5 1539.5Z" stroke="#345452" stroke-width="4.58333" stroke-miterlimit="8" fill="#84CBC5" fill-rule="evenodd"/><text fill="#FFFFFF" font-family="Open Sans,Open Sans_MSFontService,sans-serif" font-weight="400" font-size="62" transform="matrix(1 0 0 1 1179.63 1463)">Cardinality </text><text fill="#FFFFFF" font-family="Open Sans,Open Sans_MSFontService,sans-serif" font-weight="400" font-size="62" transform="matrix(1 0 0 1 1194.23 1538)">Estimates</text><path d="M1766.5 1419.5C1766.5 1402.93 1779.93 1389.5 1796.5 1389.5L2367.5 1389.5C2384.07 1389.5 2397.5 1402.93 2397.5 1419.5L2397.5 1539.5C2397.5 1556.07 2384.07 1569.5 2367.5 1569.5L1796.5 1569.5C1779.93 1569.5 1766.5 1556.07 1766.5 1539.5Z" stroke="#695823" stroke-width="4.58333" stroke-miterlimit="8" fill="#F8D35E" fill-rule="evenodd"/><text fill="#FFFFFF" font-family="Open Sans,Open Sans_MSFontService,sans-serif" font-weight="400" font-size="62" transform="matrix(1 0 0 1 1838.97 1500)">Statistics Catalog</text><path d="M1271.8 412.668 1527.15 577.479 1521.56 586.143 1266.2 421.332ZM1528.41 566.018 1546.02 595.792 1511.63 592.012Z" fill="#4C4D4D"/><text fill="#4C4D4D" font-family="Open Sans,Open Sans_MSFontService,sans-serif" font-weight="400" font-size="50" transform="matrix(1 0 0 1 1104.13 395)">SQL query</text><path d="M2.79614-4.33226 258.15 160.479 252.558 169.143-2.79614 4.33226ZM259.41 149.018 277.015 178.792 242.633 175.012Z" fill="#4C4D4D" transform="matrix(1 0 0 -1 1731 589.792)"/><text fill="#4C4D4D" font-family="Open Sans,Open Sans_MSFontService,sans-serif" font-weight="400" font-size="50" transform="matrix(1 0 0 1 2041.41 402)">Best query</text><text fill="#4C4D4D" font-family="Open Sans,Open Sans_MSFontService,sans-serif" font-weight="400" font-size="50" transform="matrix(1 0 0 1 2041.41 463)">plan</text><path d="M1370.8 598.707 1345.9 592.731 1345.99 592.751 1321.56 587.345 1321.69 587.372 1309.8 585.06 1309.92 585.083 1298.32 583.126 1298.48 583.151 1287.22 581.622 1287.43 581.645 1276.57 580.614 1276.83 580.632 1266.44 580.169 1266.76 580.174 1256.89 580.352 1257.29 580.329 1248 581.218 1248.48 581.148 1239.83 582.82 1240.41 582.672 1232.45 585.198 1233.12 584.934 1225.91 588.384 1226.63 587.967 1220.23 592.414 1220.93 591.831 1215.4 597.344 1215.9 596.761 1213.45 600.074 1213.74 599.638 1211.45 603.483 1211.66 603.108 1209.54 607.449 1209.68 607.129 1207.74 611.93 1207.84 611.656 1206.06 616.883 1206.13 616.647 1204.51 622.264 1204.59 621.966 1201.83 634.228 1201.89 633.904 1199.77 647.302 1199.81 647.035 1198.31 661.287 1198.33 661.057 1197.44 675.878 1197.45 675.669 1197.16 690.779 1197.16 690.58 1197.44 705.693 1197.44 705.494 1198.3 720.329 1198.28 720.118 1199.7 734.392 1199.67 734.156 1201.63 747.586 1201.58 747.307 1204.07 759.61 1204.02 759.357 1205.46 764.998 1205.4 764.798 1206.97 770.051 1206.9 769.819 1208.59 774.648 1208.49 774.374 1210.31 778.745 1210.16 778.417 1212.1 782.294 1211.88 781.897 1213.95 785.245 1213.58 784.729 1215.91 787.628 1215.44 787.114 1218.13 789.678 1217.4 789.095 1223.82 793.28 1222.91 792.808 1230.55 795.837 1229.8 795.605 1238.45 797.6 1237.88 797.501 1247.34 798.583 1246.9 798.552 1256.97 798.843 1256.64 798.844 1267.13 798.467 1266.87 798.483 1277.58 797.559 1277.38 797.58 1288.11 796.232 1287.95 796.254 1298.51 794.603 1298.39 794.622 1308.57 792.791 1308.49 792.806 1318.1 790.916 1318.05 790.926 1326.89 789.099 1334.77 787.454 1336.8 787.05 1338.82 797.164 1336.81 797.563 1336.86 797.554 1328.98 799.198 1320.11 801.03 1310.44 802.933 1300.16 804.782 1289.47 806.454 1278.56 807.825 1267.63 808.768 1256.84 809.156 1246.38 808.854 1236.42 807.714 1227.11 805.566 1218.63 802.204 1211.37 797.48 1208.08 794.349 1205.34 790.93 1202.99 787.12 1200.86 782.878 1198.91 778.205 1197.13 773.121 1195.49 767.652 1193.99 761.786 1191.45 749.217 1189.45 735.529 1188.01 721.031 1187.14 705.991 1186.84 690.678 1187.14 675.365 1188.04 660.323 1189.57 645.823 1191.73 632.129 1194.56 619.555 1196.26 613.671 1198.13 608.189 1200.19 603.09 1202.48 598.4 1205 594.148 1207.84 590.314 1213.97 584.206 1221.08 579.262 1228.99 575.477 1237.58 572.752 1246.77 570.976 1256.51 570.044 1266.74 569.86 1277.42 570.335 1288.51 571.389 1299.95 572.944 1311.7 574.924 1323.73 577.261 1348.27 582.692 1373.2 588.679ZM1305.88 775.085 1347.88 790.262 1313.99 819.349C1311.83 821.203 1308.58 820.955 1306.72 818.795 1304.87 816.634 1305.12 813.379 1307.28 811.524L1334.45 788.194 1336.06 796.956 1302.37 784.783C1299.7 783.815 1298.31 780.86 1299.28 778.181 1300.25 775.503 1303.2 774.117 1305.88 775.085Z" fill="#4C4D4D"/><text fill="#4C4D4D" font-family="Open Sans,Open Sans_MSFontService,sans-serif" font-weight="400" font-size="50" transform="matrix(1 0 0 1 950.545 642)">Produce </text><text fill="#4C4D4D" font-family="Open Sans,Open Sans_MSFontService,sans-serif" font-weight="400" font-size="50" transform="matrix(1 0 0 1 890.389 703)">candidates</text><path d="M1685.16 804 1685.16 950.214 1674.84 950.214 1674.84 804ZM1695.47 945.058 1680 975.995 1664.53 945.058Z" fill="#4C4D4D"/><text fill="#4C4D4D" font-family="Open Sans,Open Sans_MSFontService,sans-serif" font-weight="400" font-size="50" transform="matrix(1 0 0 1 1713.48 905)">Evaluate candidate plans</text><path d="M0 0 137.787 170.622" stroke="#4C4D4D" stroke-width="6.875" stroke-miterlimit="8" fill="none" fill-rule="evenodd" transform="matrix(-1 0 0 1 1452.29 1190.5)"/><text fill="#4C4D4D" font-family="Open Sans,Open Sans_MSFontService,sans-serif" font-weight="400" font-size="50" transform="matrix(1 0 0 1 1002.75 1202)">Costs derived </text><text fill="#4C4D4D" font-family="Open Sans,Open Sans_MSFontService,sans-serif" font-weight="400" font-size="50" transform="matrix(1 0 0 1 1205.56 1263)">from </text><text fill="#4C4D4D" font-family="Open Sans,Open Sans_MSFontService,sans-serif" font-weight="400" font-size="50" transform="matrix(1 0 0 1 1037.13 1323)">cardinalities</text><path d="M1500.04 1361.73 1518.71 1346.39 1537.55 1331.49 1556.7 1317.52 1566.46 1311.02 1576.34 1304.93 1586.38 1299.31 1596.59 1294.22 1606.99 1289.71 1617.61 1285.86 1628.45 1282.73 1639.53 1280.37 1650.86 1278.84 1662.47 1278.22 1674.35 1278.53 1686.47 1279.74 1698.82 1281.79 1711.37 1284.6 1724.12 1288.12 1737.05 1292.3 1750.14 1297.06 1763.38 1302.35 1776.75 1308.11 1790.24 1314.28 1817.47 1327.61 1844.97 1341.87 1868.57 1354.46 1866.42 1358.51 1842.82 1345.92 1842.84 1345.93 1815.38 1331.69 1815.43 1331.71 1788.25 1318.41 1788.31 1318.43 1774.87 1312.28 1774.91 1312.3 1761.6 1306.57 1761.65 1306.59 1748.48 1301.33 1748.54 1301.35 1735.52 1296.62 1735.6 1296.64 1722.76 1292.5 1722.86 1292.53 1710.21 1289.03 1710.32 1289.06 1697.88 1286.27 1698 1286.3 1685.79 1284.28 1685.94 1284.3 1673.98 1283.1 1674.14 1283.11 1662.44 1282.8 1662.63 1282.8 1651.2 1283.42 1651.38 1283.4 1640.22 1284.9 1640.4 1284.87 1629.48 1287.19 1629.64 1287.15 1618.95 1290.25 1619.1 1290.2 1608.62 1294 1608.75 1293.95 1598.47 1298.4 1598.58 1298.34 1588.47 1303.38 1588.57 1303.33 1578.62 1308.9 1578.7 1308.85 1568.9 1314.9 1568.97 1314.85 1559.28 1321.31 1559.36 1321.25 1540.29 1335.17 1540.36 1335.11 1521.57 1349.97 1521.6 1349.94 1502.96 1365.27ZM1852.73 1328.19 1871.51 1358.62 1835.77 1359.99C1834.51 1360.04 1833.44 1359.05 1833.39 1357.79 1833.34 1356.52 1834.33 1355.46 1835.59 1355.41L1867.41 1354.19 1865.55 1357.69 1848.83 1330.59C1848.16 1329.51 1848.5 1328.1 1849.58 1327.44 1850.65 1326.77 1852.06 1327.11 1852.73 1328.19Z" fill="#4C4D4D"/><text fill="#4C4D4D" font-family="Open Sans,Open Sans_MSFontService,sans-serif" font-weight="400" font-size="50" transform="matrix(1 0 0 1 1902.9 1267)">Cardinalities derived</text><text fill="#4C4D4D" font-family="Open Sans,Open Sans_MSFontService,sans-serif" font-weight="400" font-size="50" transform="matrix(1 0 0 1 1902.9 1328)">from statistics</text></g></svg>